<svg width="97" height="26" viewBox="0 0 97 26" fill="none" xmlns="http://www.w3.org/2000/svg">
<path d="M9.49854 9.8584V9.75586C9.49854 9.46777 9.52539 9.16504 9.5791 8.84766C9.6377 8.52539 9.71826 8.20557 9.8208 7.88818C9.92334 7.5708 10.0479 7.26318 10.1943 6.96533C10.3408 6.66748 10.5068 6.39404 10.6924 6.14502C10.8975 5.87646 11.127 5.63721 11.3809 5.42725C11.6396 5.2124 11.9155 5.0293 12.2085 4.87793C12.5063 4.72656 12.8213 4.61182 13.1533 4.53369C13.4854 4.45068 13.8296 4.40918 14.186 4.40918C14.4839 4.40918 14.7915 4.43848 15.1089 4.49707C15.4263 4.55078 15.7192 4.63379 15.9878 4.74609C16.2075 4.84863 16.4053 4.97314 16.5811 5.11963C16.7617 5.26123 16.9521 5.40283 17.1523 5.54443C17.1719 5.56885 17.1914 5.5835 17.2109 5.58838C17.2354 5.59326 17.2573 5.5957 17.2769 5.5957C17.3208 5.5957 17.3599 5.56396 17.394 5.50049C17.4478 5.40771 17.4966 5.29053 17.5405 5.14893C17.5845 5.00244 17.6333 4.87793 17.687 4.77539C17.7065 4.73145 17.7285 4.70703 17.7529 4.70215C17.7773 4.69238 17.8042 4.6875 17.8335 4.6875C17.8677 4.6875 17.8921 4.69971 17.9067 4.72412C17.9263 4.74854 17.936 4.76562 17.936 4.77539C17.9751 4.94629 17.9971 5.11719 18.002 5.28809C18.0117 5.45898 18.0166 5.63721 18.0166 5.82275V6.24756C18.0166 6.31104 18.0166 6.37451 18.0166 6.43799C18.0166 6.50146 18.019 6.56738 18.0239 6.63574C18.0435 6.82129 18.0679 6.98242 18.0972 7.11914C18.1265 7.25586 18.1411 7.3877 18.1411 7.51465C18.1411 7.58789 18.1289 7.66602 18.1045 7.74902C18.085 7.82715 18.041 7.86621 17.9727 7.86621C17.9434 7.86621 17.9019 7.82959 17.8481 7.75635C17.7993 7.68311 17.748 7.60254 17.6943 7.51465C17.6406 7.42187 17.5869 7.33154 17.5332 7.24365C17.4844 7.15576 17.4502 7.09717 17.4307 7.06787C17.2939 6.87256 17.1621 6.68701 17.0352 6.51123C16.9131 6.33545 16.7861 6.17188 16.6543 6.02051C16.5273 5.86426 16.3906 5.72266 16.2441 5.5957C16.1025 5.46387 15.9438 5.34668 15.7681 5.24414C15.6167 5.15137 15.4727 5.08057 15.3359 5.03174C15.1992 4.97803 15.0649 4.93896 14.9331 4.91455C14.8062 4.89014 14.6792 4.87549 14.5522 4.87061C14.4253 4.86572 14.2959 4.86328 14.1641 4.86328C13.959 4.86328 13.7686 4.89258 13.5928 4.95117C13.4219 5.00488 13.2607 5.08057 13.1094 5.17822C12.958 5.27588 12.8164 5.38818 12.6846 5.51514C12.5576 5.64209 12.4331 5.77637 12.311 5.91797C11.9595 6.33301 11.6934 6.88721 11.5127 7.58057C11.3369 8.26904 11.249 9.09424 11.249 10.0562C11.249 10.5347 11.2905 10.9692 11.3735 11.3599C11.4614 11.7456 11.5688 12.0898 11.6958 12.3926C11.8228 12.6904 11.9619 12.9492 12.1133 13.1689C12.2695 13.3838 12.416 13.5596 12.5527 13.6963C12.6992 13.8525 12.8384 13.9893 12.9702 14.1064C13.1069 14.2188 13.2485 14.3115 13.395 14.3848C13.5415 14.458 13.7002 14.5142 13.8711 14.5532C14.042 14.5874 14.2349 14.6045 14.4497 14.6045C14.7769 14.6045 15.0967 14.5337 15.4092 14.3921C15.7217 14.2505 16.0269 14.0649 16.3247 13.8354C16.3882 13.7866 16.4541 13.728 16.5225 13.6597C16.5908 13.5913 16.6567 13.5229 16.7202 13.4546C16.7886 13.3862 16.8496 13.3203 16.9033 13.2568C16.9619 13.1885 17.0107 13.1274 17.0498 13.0737C17.2061 12.8296 17.3428 12.5928 17.46 12.3633C17.5771 12.1338 17.6846 11.897 17.7822 11.6528C17.8311 11.5796 17.9165 11.543 18.0386 11.543C18.0923 11.543 18.1289 11.5625 18.1484 11.6016C18.168 11.6406 18.1777 11.687 18.1777 11.7407C18.0996 12.0093 18.0312 12.2534 17.9727 12.4731C17.9141 12.688 17.8506 12.9175 17.7822 13.1616C17.7383 13.3374 17.7065 13.5107 17.687 13.6816C17.6675 13.8477 17.6479 13.9966 17.6284 14.1284C17.6089 14.2554 17.5869 14.3579 17.5625 14.436C17.5381 14.5142 17.499 14.5532 17.4453 14.5532C17.4062 14.5532 17.3745 14.5386 17.3501 14.5093C17.3257 14.48 17.3013 14.4336 17.2769 14.3701C17.2671 14.3213 17.25 14.2798 17.2256 14.2456C17.2061 14.2065 17.1694 14.187 17.1157 14.187C17.062 14.187 17.0107 14.1968 16.9619 14.2163C16.918 14.2358 16.8618 14.2676 16.7935 14.3115C16.7251 14.3506 16.6396 14.3994 16.5371 14.458C16.4346 14.5117 16.2979 14.5752 16.127 14.6484C15.8145 14.7754 15.48 14.8779 15.1235 14.9561C14.7671 15.0293 14.4131 15.0659 14.0615 15.0659C13.5488 15.0659 13.0801 15 12.6553 14.8682C12.2305 14.7314 11.8276 14.502 11.4468 14.1797C11.144 13.9209 10.873 13.6255 10.6338 13.2935C10.3945 12.9565 10.1895 12.6001 10.0186 12.2241C9.85254 11.8481 9.72314 11.46 9.63037 11.0596C9.54248 10.6543 9.49854 10.2539 9.49854 9.8584ZM19.4814 14.8608C19.4814 14.7485 19.5303 14.6851 19.6279 14.6704H19.9062C19.9941 14.6704 20.0747 14.6704 20.1479 14.6704C20.2212 14.6655 20.2847 14.6558 20.3384 14.6411C20.3921 14.6265 20.4336 14.6021 20.4629 14.5679C20.4971 14.5337 20.5142 14.4873 20.5142 14.4287V8.52539C20.5142 8.47168 20.4922 8.42773 20.4482 8.39355C20.4043 8.35449 20.3555 8.33496 20.3018 8.33496H19.7817H19.6426C19.6182 8.33496 19.5889 8.33252 19.5547 8.32764C19.5205 8.32275 19.4814 8.31787 19.4375 8.31299C19.4131 8.30322 19.3911 8.28369 19.3716 8.25439C19.3569 8.2251 19.3496 8.19824 19.3496 8.17383C19.3496 8.08105 19.4082 8.03467 19.5254 8.03467H21.3271C21.3418 8.03467 21.3784 8.03223 21.437 8.02734C21.5005 8.02246 21.5664 8.01758 21.6348 8.0127C21.7031 8.00781 21.7642 8.00293 21.8179 7.99805C21.8716 7.99316 21.9033 7.99072 21.9131 7.99072C21.9814 7.98584 22.0571 7.98096 22.1401 7.97607C22.228 7.97119 22.2988 7.96875 22.3525 7.96875C22.3672 7.96875 22.394 7.97119 22.4331 7.97607C22.4722 7.97607 22.5137 7.97852 22.5576 7.9834C22.6016 7.9834 22.6431 7.98584 22.6821 7.99072C22.7261 7.99072 22.7554 7.99072 22.77 7.99072C22.8384 8.00537 22.8726 8.04443 22.8726 8.10791C22.8726 8.16162 22.8555 8.21533 22.8213 8.26904C22.792 8.30322 22.7456 8.32031 22.6821 8.32031H21.8765C21.8423 8.32031 21.8154 8.33984 21.7959 8.37891C21.7764 8.41309 21.7593 8.45703 21.7446 8.51074C21.7349 8.55957 21.7275 8.61084 21.7227 8.66455C21.7227 8.71826 21.7227 8.76465 21.7227 8.80371C21.7227 9.05762 21.7349 9.31152 21.7593 9.56543C21.7837 9.81445 21.7959 10.1001 21.7959 10.4224V14.4653C21.7959 14.4995 21.8032 14.541 21.8179 14.5898C21.8374 14.6338 21.8691 14.6558 21.9131 14.6558H24.2568C24.3887 14.6558 24.5132 14.5972 24.6304 14.48C24.7476 14.3628 24.855 14.2261 24.9526 14.0698C25.0552 13.9136 25.1431 13.7598 25.2163 13.6084C25.2944 13.4521 25.3579 13.3374 25.4067 13.2642C25.436 13.23 25.4653 13.2129 25.4946 13.2129C25.519 13.2129 25.541 13.2349 25.5605 13.2788C25.5801 13.3472 25.5898 13.4082 25.5898 13.4619C25.5947 13.5107 25.5972 13.584 25.5972 13.6816C25.5972 13.7207 25.5898 13.7793 25.5752 13.8574C25.5654 13.9307 25.5508 14.0088 25.5312 14.0918C25.5166 14.1748 25.502 14.2554 25.4873 14.3335C25.4775 14.4067 25.4727 14.4653 25.4727 14.5093C25.4727 14.5337 25.4727 14.5679 25.4727 14.6118C25.4727 14.6509 25.4702 14.6924 25.4653 14.7363C25.4653 14.7803 25.4629 14.8218 25.458 14.8608C25.4531 14.895 25.4458 14.9194 25.436 14.9341C25.3677 14.978 25.3066 15 25.2529 15C24.6426 15 23.9907 14.9951 23.2974 14.9854C22.604 14.9707 21.9131 14.9634 21.2246 14.9634C21.1025 14.9634 20.9756 14.9658 20.8438 14.9707C20.7119 14.9756 20.585 14.9829 20.4629 14.9927C20.3408 14.9976 20.2236 15.0024 20.1113 15.0073C20.0039 15.0122 19.9111 15.0146 19.833 15.0146C19.7305 15.0146 19.645 15.0098 19.5767 15C19.5132 14.9854 19.4814 14.939 19.4814 14.8608ZM26.4102 11.5503C26.4102 11.2622 26.437 11.001 26.4907 10.7666C26.5444 10.5273 26.625 10.3052 26.7324 10.1001C26.8398 9.89502 26.9717 9.70215 27.1279 9.52148C27.2891 9.33594 27.4722 9.15527 27.6772 8.97949C27.8384 8.84277 28.0117 8.73047 28.1973 8.64258C28.3828 8.55469 28.5732 8.48633 28.7686 8.4375C28.9688 8.38379 29.1738 8.34717 29.3838 8.32764C29.5938 8.30811 29.8013 8.29834 30.0063 8.29834C30.1821 8.29834 30.3677 8.3252 30.563 8.37891C30.7632 8.43262 30.9561 8.50342 31.1416 8.59131C31.3271 8.67432 31.498 8.76709 31.6543 8.86963C31.8105 8.96729 31.9399 9.0625 32.0425 9.15527C32.3989 9.49219 32.6748 9.8584 32.8701 10.2539C33.0654 10.6445 33.1631 11.0742 33.1631 11.543C33.1631 11.7969 33.1436 12.0312 33.1045 12.2461C33.0703 12.4561 33.0166 12.6538 32.9434 12.8394C32.875 13.0249 32.7871 13.2007 32.6797 13.3667C32.5771 13.5327 32.4575 13.6963 32.3208 13.8574C32.1938 13.999 32.0425 14.1382 31.8667 14.2749C31.6958 14.4116 31.5054 14.5337 31.2954 14.6411C31.0854 14.7485 30.8584 14.8364 30.6143 14.9048C30.375 14.9683 30.126 15 29.8672 15C29.4229 15 29.0127 14.9414 28.6367 14.8242C28.2656 14.7021 27.9189 14.4897 27.5967 14.187C26.8057 13.4985 26.4102 12.6196 26.4102 11.5503ZM29.8013 8.61328C29.5815 8.61328 29.3936 8.6377 29.2373 8.68652C29.0859 8.73047 28.9492 8.79639 28.8271 8.88428C28.71 8.96729 28.6025 9.06982 28.5049 9.19189C28.4072 9.31396 28.3071 9.45068 28.2046 9.60205C28.019 9.89014 27.897 10.1978 27.8384 10.5249C27.7798 10.8472 27.7505 11.1743 27.7505 11.5063C27.7505 11.8872 27.7871 12.2681 27.8604 12.6489C27.9385 13.0249 28.0874 13.3911 28.3071 13.7476C28.3657 13.8501 28.4487 13.9575 28.5562 14.0698C28.6636 14.1772 28.7808 14.2773 28.9077 14.3701C29.0347 14.458 29.1641 14.5337 29.2959 14.5972C29.4326 14.6558 29.5596 14.6851 29.6768 14.6851C29.9062 14.6851 30.1064 14.646 30.2773 14.5679C30.4531 14.4897 30.6094 14.3872 30.7461 14.2603C30.8828 14.1284 31.0024 13.9795 31.105 13.8135C31.2124 13.6426 31.3149 13.4668 31.4126 13.2861C31.5347 13.0469 31.6226 12.7905 31.6763 12.5171C31.7349 12.2388 31.7642 11.9385 31.7642 11.6162C31.7642 11.3867 31.7471 11.1719 31.7129 10.9717C31.6836 10.7715 31.6348 10.5786 31.5664 10.3931C31.5029 10.2075 31.4224 10.0269 31.3247 9.85107C31.2271 9.67041 31.1123 9.4873 30.9805 9.30176C30.8486 9.10156 30.6802 8.93799 30.4751 8.81104C30.2749 8.6792 30.0503 8.61328 29.8013 8.61328ZM39.4546 14.8242C39.4546 14.6826 39.4692 14.5068 39.4985 14.2969C39.5278 14.0869 39.5425 13.8818 39.5425 13.6816C39.5425 13.6475 39.5352 13.606 39.5205 13.5571C39.5107 13.5034 39.4839 13.4766 39.4399 13.4766C39.4204 13.4766 39.396 13.5034 39.3667 13.5571C39.3423 13.606 39.3081 13.6572 39.2642 13.7109C39.1079 13.8867 38.9517 14.0527 38.7954 14.209C38.6392 14.3604 38.4731 14.4946 38.2974 14.6118C38.1216 14.729 37.9312 14.8218 37.7261 14.8901C37.521 14.9536 37.2939 14.9854 37.0449 14.9854C36.5518 14.9854 36.1172 14.8218 35.7412 14.4946C35.6191 14.397 35.519 14.292 35.4409 14.1797C35.3677 14.0625 35.3091 13.9404 35.2651 13.8135C35.2212 13.6865 35.1919 13.5522 35.1772 13.4106C35.1626 13.269 35.1553 13.1226 35.1553 12.9712V8.6499C35.1553 8.57666 35.1479 8.51074 35.1333 8.45215C35.1235 8.38867 35.082 8.35693 35.0088 8.35693H33.8662C33.8223 8.35693 33.7856 8.3374 33.7563 8.29834C33.7271 8.25928 33.7124 8.22021 33.7124 8.18115C33.7124 8.16162 33.7173 8.125 33.7271 8.07129C33.7417 8.01758 33.7759 7.99072 33.8296 7.99072H36.2466C36.3247 7.99072 36.3638 8.0249 36.3638 8.09326V12.5903C36.3638 12.7759 36.3906 12.959 36.4443 13.1396C36.498 13.3203 36.5786 13.4814 36.686 13.623C36.7935 13.7646 36.9253 13.8794 37.0815 13.9673C37.2427 14.0552 37.4282 14.0991 37.6382 14.0991C37.8823 14.0991 38.0923 14.0771 38.2681 14.0332C38.4438 13.9844 38.6245 13.9087 38.8101 13.8062C39.0151 13.6841 39.1958 13.5083 39.3521 13.2788C39.4106 13.1958 39.457 13.1177 39.4912 13.0444C39.5254 12.9712 39.5522 12.8979 39.5718 12.8247C39.5913 12.7515 39.6035 12.6733 39.6084 12.5903C39.6182 12.5073 39.6255 12.4146 39.6304 12.312L39.7036 8.6792C39.7036 8.66455 39.7012 8.63525 39.6963 8.59131C39.6963 8.54248 39.689 8.49121 39.6743 8.4375C39.6646 8.38379 39.6475 8.3374 39.623 8.29834C39.6035 8.25439 39.5718 8.23242 39.5278 8.23242C39.4985 8.23242 39.4399 8.2373 39.3521 8.24707C39.269 8.25684 39.1714 8.26172 39.0591 8.26172C38.9517 8.26172 38.8491 8.26416 38.7515 8.26904C38.6587 8.26904 38.5854 8.26904 38.5317 8.26904C38.4292 8.26904 38.3438 8.26416 38.2754 8.25439C38.207 8.24463 38.1729 8.20801 38.1729 8.14453C38.1729 8.11035 38.1753 8.07373 38.1802 8.03467C38.1851 7.99561 38.2046 7.96387 38.2388 7.93945C38.2827 7.91016 38.3315 7.89062 38.3853 7.88086C38.4438 7.87109 38.5 7.86621 38.5537 7.86621C38.6221 7.86621 38.7002 7.87109 38.7881 7.88086C38.876 7.89062 38.9639 7.90039 39.0518 7.91016C39.1445 7.91992 39.2324 7.92969 39.3154 7.93945C39.4033 7.94922 39.479 7.9541 39.5425 7.9541H40.9487C40.9829 7.9541 41 7.97119 41 8.00537L40.7729 13.7695V13.8721C40.7729 13.8965 40.7729 13.916 40.7729 13.9307C40.7729 13.9453 40.7754 13.9648 40.7803 13.9893C40.8047 14.0723 40.8413 14.1479 40.8901 14.2163C40.939 14.2847 41.0171 14.3188 41.1245 14.3188C41.188 14.3188 41.2563 14.314 41.3296 14.3042C41.4028 14.2944 41.4736 14.2822 41.542 14.2676C41.6104 14.2529 41.6738 14.2407 41.7324 14.231C41.7959 14.2212 41.8472 14.2163 41.8862 14.2163C41.9399 14.2163 41.9717 14.2358 41.9814 14.2749C41.9961 14.314 42.0034 14.3481 42.0034 14.3774C42.0034 14.436 41.9814 14.4824 41.9375 14.5166C41.8984 14.5459 41.8569 14.5728 41.813 14.5972C41.7056 14.6313 41.6079 14.6484 41.52 14.6484C41.4663 14.6484 41.415 14.6509 41.3662 14.6558C41.3223 14.6558 41.2588 14.6606 41.1758 14.6704C41.0195 14.6899 40.8486 14.7217 40.6631 14.7656C40.4824 14.8096 40.3188 14.8535 40.1724 14.8975C40.0747 14.9365 39.9819 14.9707 39.894 15C39.811 15.0244 39.7183 15.0366 39.6157 15.0366C39.562 15.0366 39.5205 15.0146 39.4912 14.9707C39.4668 14.9268 39.4546 14.8779 39.4546 14.8242ZM42.7578 14.8755C42.7578 14.8413 42.7749 14.812 42.8091 14.7876C42.8481 14.7632 42.8921 14.7437 42.9409 14.729C42.9897 14.7144 43.0337 14.7046 43.0728 14.6997C43.1167 14.6899 43.146 14.6851 43.1606 14.6851H43.3291C43.3877 14.6851 43.4487 14.6826 43.5122 14.6777C43.5806 14.6729 43.6465 14.668 43.71 14.6631C43.7734 14.6533 43.8271 14.6436 43.8711 14.6338C43.9199 14.624 43.9541 14.6118 43.9736 14.5972C44.0322 14.5386 44.0615 14.3896 44.0615 14.1504V8.54736C44.0615 8.38623 44.02 8.29834 43.937 8.28369C43.7808 8.26904 43.5977 8.26172 43.3877 8.26172C43.2803 8.26172 43.1802 8.25684 43.0874 8.24707C42.9995 8.23242 42.9141 8.21533 42.8311 8.1958C42.7822 8.18115 42.7578 8.15186 42.7578 8.10791C42.792 8.02979 42.8433 7.98096 42.9116 7.96143C42.9849 7.94189 43.0605 7.93213 43.1387 7.93213C43.3096 7.93213 43.4902 7.94189 43.6807 7.96143C43.8711 7.97607 44.0322 7.9834 44.1641 7.9834C44.4863 7.9834 44.8184 7.97607 45.1602 7.96143C45.5068 7.94189 45.8975 7.93213 46.332 7.93213C46.542 7.93213 46.7446 7.93457 46.9399 7.93945C47.1401 7.94434 47.3379 7.95898 47.5332 7.9834C47.5918 7.99316 47.6724 8.01514 47.7749 8.04932C47.8823 8.07861 47.9922 8.11279 48.1045 8.15186C48.2217 8.19092 48.3291 8.23242 48.4268 8.27637C48.5293 8.31543 48.6025 8.34717 48.6465 8.37158C49.2568 8.70361 49.7183 9.13086 50.0308 9.65332C50.3433 10.1709 50.4995 10.813 50.4995 11.5796C50.4849 11.7847 50.4653 11.9824 50.4409 12.1729C50.4165 12.3633 50.3701 12.5537 50.3018 12.7441C50.2383 12.9297 50.1406 13.1177 50.0088 13.3081C49.877 13.4985 49.6938 13.6987 49.4595 13.9087C49.3276 14.0161 49.1885 14.1162 49.042 14.209C48.8955 14.3018 48.7515 14.3848 48.6099 14.458C48.4731 14.5312 48.3438 14.5947 48.2217 14.6484C48.1045 14.6973 48.002 14.7339 47.9141 14.7583C47.6748 14.8169 47.4453 14.8633 47.2256 14.8975C47.0059 14.9316 46.7886 14.9561 46.5737 14.9707C46.3589 14.9854 46.1392 14.9951 45.9146 15C45.6948 15 45.4629 15 45.2188 15H43.959H42.8604C42.792 14.9854 42.7578 14.9438 42.7578 14.8755ZM45.2261 14.2896C45.2261 14.3726 45.2285 14.4482 45.2334 14.5166C45.2432 14.5801 45.27 14.624 45.314 14.6484C45.353 14.6582 45.4043 14.668 45.4678 14.6777C45.5361 14.6826 45.6094 14.6875 45.6875 14.6924C45.7705 14.6924 45.8511 14.6924 45.9292 14.6924C46.0122 14.6924 46.0879 14.6924 46.1562 14.6924C46.3906 14.6924 46.5981 14.6753 46.7788 14.6411C46.9644 14.6021 47.1304 14.5508 47.2769 14.4873C47.4282 14.4238 47.5625 14.3506 47.6797 14.2676C47.8018 14.1797 47.9189 14.0894 48.0312 13.9966C48.207 13.8354 48.3608 13.6646 48.4927 13.4839C48.6294 13.3032 48.7417 13.1079 48.8296 12.8979C48.9224 12.6831 48.9907 12.4512 49.0347 12.2021C49.0835 11.9482 49.1079 11.6675 49.1079 11.3599C49.1079 11.1304 49.0933 10.918 49.064 10.7227C49.0347 10.5225 48.9858 10.3345 48.9175 10.1587C48.854 9.98291 48.7686 9.81445 48.6611 9.65332C48.5537 9.49219 48.4243 9.33105 48.2729 9.16992C48.1021 8.99414 47.9189 8.84277 47.7236 8.71582C47.5332 8.58398 47.333 8.479 47.123 8.40088C46.9131 8.31787 46.7007 8.25684 46.4858 8.21777C46.2759 8.17871 46.0684 8.15918 45.8633 8.15918C45.7363 8.15918 45.6191 8.17627 45.5117 8.21045C45.4043 8.23975 45.3091 8.31543 45.2261 8.4375V14.2896Z" fill="white"/>
<path d="M51.6055 14.8975C51.6055 14.7461 51.7129 14.6704 51.9277 14.6704C52.0791 14.6704 52.2354 14.6582 52.3965 14.6338C52.5576 14.6045 52.709 14.5703 52.8506 14.5312C52.9287 14.5117 52.9971 14.4824 53.0557 14.4434C53.1143 14.3994 53.1436 14.3237 53.1436 14.2163V5.21484C53.1143 5.14648 53.0581 5.08789 52.9751 5.03906C52.897 4.99023 52.8042 4.95117 52.6968 4.92188C52.5894 4.89258 52.4746 4.86816 52.3525 4.84863C52.2354 4.8291 52.1206 4.81201 52.0083 4.79736C51.9009 4.78271 51.8008 4.76807 51.708 4.75342C51.6201 4.73389 51.5542 4.71191 51.5103 4.6875C51.4761 4.67773 51.459 4.64355 51.459 4.58496C51.459 4.54102 51.4761 4.5166 51.5103 4.51172C51.5298 4.50195 51.5591 4.49219 51.5981 4.48242C51.6372 4.47266 51.7129 4.46777 51.8252 4.46777C51.8643 4.46777 51.9546 4.47266 52.0962 4.48242C52.2427 4.4873 52.4014 4.49707 52.5723 4.51172C52.7432 4.52148 52.9043 4.53125 53.0557 4.54102C53.2119 4.5459 53.3169 4.54834 53.3706 4.54834H54.3594C54.3789 4.54834 54.4253 4.5459 54.4985 4.54102C54.5767 4.53613 54.6597 4.53369 54.7476 4.53369C54.8354 4.52881 54.9136 4.52393 54.9819 4.51904C55.0552 4.51416 55.0967 4.51172 55.1064 4.51172C55.2725 4.4873 55.4385 4.47266 55.6045 4.46777C55.7705 4.46289 55.939 4.46045 56.1099 4.46045C56.4077 4.46045 56.7129 4.47266 57.0254 4.49707C57.3428 4.5166 57.6406 4.58008 57.9189 4.6875C58.2021 4.79492 58.4585 4.93896 58.688 5.11963C58.9175 5.29541 59.1128 5.49805 59.2739 5.72754C59.4399 5.95215 59.5669 6.19873 59.6548 6.46729C59.7476 6.73584 59.7939 7.01172 59.7939 7.29492C59.7939 7.79297 59.7036 8.2251 59.5229 8.59131C59.3472 8.95264 59.0615 9.27734 58.666 9.56543C58.4219 9.74121 58.124 9.89014 57.7725 10.0122C57.4258 10.1294 57.0303 10.188 56.5859 10.188C56.3955 10.188 56.2075 10.1855 56.022 10.1807C55.8364 10.1709 55.646 10.1562 55.4507 10.1367C55.4263 10.1367 55.397 10.1318 55.3628 10.1221C55.3286 10.1123 55.2847 10.1074 55.231 10.1074H55.0918C55.0479 10.1074 55.0234 10.1172 55.0186 10.1367C54.9404 10.1611 54.8745 10.2051 54.8208 10.2686C54.7671 10.3271 54.7402 10.4297 54.7402 10.5762V11.9824C54.7402 12.3145 54.7256 12.6758 54.6963 13.0664C54.6719 13.457 54.6597 13.8306 54.6597 14.187C54.6597 14.2896 54.6816 14.3628 54.7256 14.4067C54.7695 14.4458 54.833 14.4751 54.916 14.4946C55.1357 14.5483 55.3433 14.5874 55.5386 14.6118C55.7339 14.6313 55.9365 14.6631 56.1465 14.707C56.2197 14.7314 56.2637 14.7583 56.2783 14.7876C56.2979 14.812 56.3076 14.8413 56.3076 14.8755C56.3076 14.9048 56.293 14.9292 56.2637 14.9487C56.2393 14.9634 56.2075 14.978 56.1685 14.9927C56.1343 15.0024 56.0977 15.0098 56.0586 15.0146C56.0244 15.0195 55.9951 15.022 55.9707 15.022C55.9121 15.022 55.8389 15.0195 55.751 15.0146C55.668 15.0146 55.5825 15.0122 55.4946 15.0073C55.4116 15.0073 55.3311 15.0049 55.2529 15C55.1797 15 55.1211 15 55.0771 15H52.8652C52.6797 15 52.5015 15.0024 52.3306 15.0073C52.1646 15.0171 52.0425 15.022 51.9644 15.022H51.6934C51.6348 15.0171 51.6055 14.9756 51.6055 14.8975ZM54.8794 9.8584C54.9673 9.88281 55.0527 9.90479 55.1357 9.92432C55.2236 9.93896 55.3311 9.94629 55.458 9.94629C55.6777 9.94629 55.8999 9.92188 56.1245 9.87305C56.3491 9.81934 56.5542 9.74121 56.7397 9.63867C56.9155 9.5459 57.0864 9.42383 57.2524 9.27246C57.4233 9.12109 57.5747 8.94531 57.7065 8.74512C57.8384 8.54004 57.9434 8.31299 58.0215 8.06396C58.1045 7.81006 58.146 7.53418 58.146 7.23633C58.146 6.92383 58.1118 6.64795 58.0435 6.40869C57.9751 6.16455 57.8726 5.94971 57.7358 5.76416C57.604 5.57861 57.4355 5.41748 57.2305 5.28076C57.0303 5.13916 56.7959 5.01221 56.5273 4.8999C56.3809 4.83643 56.2271 4.79248 56.0659 4.76807C55.9097 4.73877 55.7461 4.72412 55.5752 4.72412C55.4189 4.72412 55.2749 4.73145 55.1431 4.74609C55.0161 4.75586 54.8818 4.7876 54.7402 4.84131V9.49951C54.7402 9.57764 54.7451 9.65088 54.7549 9.71924C54.7695 9.7876 54.811 9.83398 54.8794 9.8584ZM60.6729 14.8608C60.6729 14.7485 60.7217 14.6851 60.8193 14.6704H61.0977C61.1855 14.6704 61.2661 14.6704 61.3394 14.6704C61.4126 14.6655 61.4761 14.6558 61.5298 14.6411C61.5835 14.6265 61.625 14.6021 61.6543 14.5679C61.6885 14.5337 61.7056 14.4873 61.7056 14.4287V8.52539C61.7056 8.47168 61.6836 8.42773 61.6396 8.39355C61.5957 8.35449 61.5469 8.33496 61.4932 8.33496H60.9731H60.834C60.8096 8.33496 60.7803 8.33252 60.7461 8.32764C60.7119 8.32275 60.6729 8.31787 60.6289 8.31299C60.6045 8.30322 60.5825 8.28369 60.563 8.25439C60.5483 8.2251 60.541 8.19824 60.541 8.17383C60.541 8.08105 60.5996 8.03467 60.7168 8.03467H62.5186C62.5332 8.03467 62.5698 8.03223 62.6284 8.02734C62.6919 8.02246 62.7578 8.01758 62.8262 8.0127C62.8945 8.00781 62.9556 8.00293 63.0093 7.99805C63.063 7.99316 63.0947 7.99072 63.1045 7.99072C63.1729 7.98584 63.2485 7.98096 63.3315 7.97607C63.4194 7.97119 63.4902 7.96875 63.5439 7.96875C63.5586 7.96875 63.5854 7.97119 63.6245 7.97607C63.6636 7.97607 63.7051 7.97852 63.749 7.9834C63.793 7.9834 63.8345 7.98584 63.8735 7.99072C63.9175 7.99072 63.9468 7.99072 63.9614 7.99072C64.0298 8.00537 64.064 8.04443 64.064 8.10791C64.064 8.16162 64.0469 8.21533 64.0127 8.26904C63.9834 8.30322 63.937 8.32031 63.8735 8.32031H63.0679C63.0337 8.32031 63.0068 8.33984 62.9873 8.37891C62.9678 8.41309 62.9507 8.45703 62.936 8.51074C62.9263 8.55957 62.9189 8.61084 62.9141 8.66455C62.9141 8.71826 62.9141 8.76465 62.9141 8.80371C62.9141 9.05762 62.9263 9.31152 62.9507 9.56543C62.9751 9.81445 62.9873 10.1001 62.9873 10.4224V14.4653C62.9873 14.4995 62.9946 14.541 63.0093 14.5898C63.0288 14.6338 63.0605 14.6558 63.1045 14.6558H65.4482C65.5801 14.6558 65.7046 14.5972 65.8218 14.48C65.939 14.3628 66.0464 14.2261 66.144 14.0698C66.2466 13.9136 66.3345 13.7598 66.4077 13.6084C66.4858 13.4521 66.5493 13.3374 66.5981 13.2642C66.6274 13.23 66.6567 13.2129 66.686 13.2129C66.7104 13.2129 66.7324 13.2349 66.752 13.2788C66.7715 13.3472 66.7812 13.4082 66.7812 13.4619C66.7861 13.5107 66.7886 13.584 66.7886 13.6816C66.7886 13.7207 66.7812 13.7793 66.7666 13.8574C66.7568 13.9307 66.7422 14.0088 66.7227 14.0918C66.708 14.1748 66.6934 14.2554 66.6787 14.3335C66.6689 14.4067 66.6641 14.4653 66.6641 14.5093C66.6641 14.5337 66.6641 14.5679 66.6641 14.6118C66.6641 14.6509 66.6616 14.6924 66.6567 14.7363C66.6567 14.7803 66.6543 14.8218 66.6494 14.8608C66.6445 14.895 66.6372 14.9194 66.6274 14.9341C66.5591 14.978 66.498 15 66.4443 15C65.834 15 65.1821 14.9951 64.4888 14.9854C63.7954 14.9707 63.1045 14.9634 62.416 14.9634C62.2939 14.9634 62.167 14.9658 62.0352 14.9707C61.9033 14.9756 61.7764 14.9829 61.6543 14.9927C61.5322 14.9976 61.415 15.0024 61.3027 15.0073C61.1953 15.0122 61.1025 15.0146 61.0244 15.0146C60.9219 15.0146 60.8364 15.0098 60.7681 15C60.7046 14.9854 60.6729 14.939 60.6729 14.8608ZM67.0596 14.7949C67.0596 14.7754 67.0742 14.7461 67.1035 14.707C67.1279 14.668 67.167 14.6484 67.2207 14.6484C67.2988 14.6484 67.3818 14.6362 67.4697 14.6118C67.5625 14.5874 67.6504 14.5508 67.7334 14.502C67.8213 14.4482 67.9019 14.3823 67.9751 14.3042C68.0532 14.2212 68.1191 14.1235 68.1729 14.0112L70.1138 9.41162C70.1187 9.40186 70.1284 9.37988 70.1431 9.3457C70.1626 9.30664 70.1724 9.2749 70.1724 9.25049C70.1724 9.19678 70.1602 9.14307 70.1357 9.08936C70.1113 9.03564 70.082 8.98682 70.0479 8.94287C70.0186 8.89404 69.9917 8.85254 69.9673 8.81836C69.9429 8.7793 69.9307 8.74512 69.9307 8.71582C69.9307 8.66699 69.9478 8.62793 69.9819 8.59863C70.0161 8.56934 70.0552 8.54736 70.0991 8.53271C70.1479 8.51318 70.1992 8.50098 70.2529 8.49609C70.3066 8.49121 70.353 8.48389 70.3921 8.47412C70.436 8.45459 70.4849 8.42285 70.5386 8.37891C70.5923 8.33008 70.6362 8.29102 70.6704 8.26172C70.6851 8.2373 70.6973 8.20557 70.707 8.1665C70.7168 8.12744 70.7266 8.09082 70.7363 8.05664C70.751 8.02246 70.7681 7.99316 70.7876 7.96875C70.812 7.94434 70.8438 7.93213 70.8828 7.93213C70.9805 7.93213 71.0391 7.97363 71.0586 8.05664L73.1533 14.3262C73.1826 14.4189 73.2144 14.4922 73.2485 14.5459C73.2876 14.5947 73.334 14.6313 73.3877 14.6558C73.4414 14.6802 73.5 14.6948 73.5635 14.6997C73.6318 14.7046 73.71 14.707 73.7979 14.707H74.0615C74.1055 14.707 74.1396 14.7119 74.1641 14.7217C74.1885 14.7217 74.2153 14.7388 74.2446 14.7729C74.2788 14.8071 74.2959 14.8364 74.2959 14.8608C74.2959 14.939 74.252 14.9805 74.1641 14.9854C74.1543 14.9951 74.1201 15 74.0615 15H73.644C73.5024 15 73.3389 14.9927 73.1533 14.978C72.9678 14.9585 72.7822 14.9487 72.5967 14.9487C72.2939 14.9487 72.001 14.9585 71.7178 14.978C71.4346 14.9927 71.1831 15 70.9634 15C70.939 15 70.9121 14.9951 70.8828 14.9854C70.8584 14.9756 70.8462 14.9561 70.8462 14.9268C70.8462 14.8975 70.8584 14.8682 70.8828 14.8389C70.9072 14.8096 70.9365 14.7827 70.9707 14.7583C71.0049 14.729 71.0415 14.707 71.0806 14.6924C71.1245 14.6777 71.1636 14.6704 71.1978 14.6704C71.2466 14.6704 71.2954 14.6729 71.3442 14.6777C71.3931 14.6826 71.4468 14.6851 71.5054 14.6851C71.6616 14.6851 71.7886 14.668 71.8862 14.6338C71.9692 14.6045 72.0107 14.5459 72.0107 14.458C72.0107 14.4482 72.0083 14.436 72.0034 14.4214C71.9985 14.4067 71.9937 14.3848 71.9888 14.3555C71.9692 14.3115 71.9375 14.231 71.8936 14.1138C71.8496 13.9917 71.8032 13.8599 71.7544 13.7183C71.7056 13.5767 71.6567 13.4399 71.6079 13.3081C71.564 13.1763 71.5298 13.0737 71.5054 13.0005C71.4858 12.9565 71.4639 12.915 71.4395 12.876C71.4199 12.832 71.3833 12.8101 71.3296 12.8101H69.2715C69.1494 12.8101 69.0713 12.8687 69.0371 12.9858L68.7441 14.0479C68.7344 14.082 68.7271 14.1113 68.7222 14.1357C68.7173 14.1602 68.7148 14.1943 68.7148 14.2383C68.7148 14.3164 68.7197 14.3799 68.7295 14.4287C68.7441 14.4727 68.7637 14.5093 68.7881 14.5386C68.8174 14.5679 68.854 14.5898 68.8979 14.6045C68.9468 14.6143 69.0078 14.624 69.0811 14.6338C69.1055 14.6338 69.1445 14.6387 69.1982 14.6484C69.2568 14.6533 69.3179 14.6606 69.3813 14.6704C69.4448 14.6802 69.5034 14.6899 69.5571 14.6997C69.6157 14.7046 69.6572 14.707 69.6816 14.707C69.7061 14.7168 69.7402 14.7412 69.7842 14.7803C69.833 14.8145 69.8574 14.8535 69.8574 14.8975C69.8574 14.9219 69.8477 14.9463 69.8281 14.9707C69.8086 14.9902 69.772 15 69.7183 15H69.4912C69.4131 15 69.3057 14.9976 69.1689 14.9927C69.0371 14.9878 68.9028 14.9854 68.7661 14.9854C68.6343 14.9854 68.4756 14.9878 68.29 14.9927C68.1045 14.9976 67.9141 15 67.7188 15C67.6943 15 67.6455 14.9976 67.5723 14.9927C67.499 14.9829 67.4233 14.9707 67.3452 14.9561C67.272 14.9365 67.2061 14.9146 67.1475 14.8901C67.0889 14.8608 67.0596 14.8291 67.0596 14.7949ZM69.3228 12.1582C69.3179 12.168 69.3154 12.1948 69.3154 12.2388V12.2754C69.3154 12.3291 69.3301 12.3755 69.3594 12.4146C69.3936 12.4487 69.4375 12.4658 69.4912 12.4658C69.7891 12.4658 70.0698 12.478 70.3335 12.5024C70.6021 12.522 70.8608 12.5317 71.1099 12.5317C71.1636 12.5317 71.2051 12.5171 71.2344 12.4878C71.2637 12.4536 71.2783 12.4219 71.2783 12.3926V12.312C71.2783 12.3022 71.2759 12.2925 71.271 12.2827C71.2612 12.2681 71.2539 12.2437 71.249 12.2095L70.4653 9.98291C70.4263 9.88037 70.3799 9.8291 70.3262 9.8291C70.3018 9.8291 70.2749 9.83887 70.2456 9.8584C70.2163 9.87793 70.1968 9.89746 70.187 9.91699L69.3228 12.1582Z" fill="#00A6DA"/>
<path d="M80.1846 8.12988V9.74121C80.1846 9.7998 80.1675 9.85352 80.1333 9.90234C80.104 9.94629 80.0625 9.96826 80.0088 9.96826C79.9355 9.96826 79.8696 9.93408 79.811 9.86572C79.7573 9.79736 79.7085 9.71924 79.6646 9.63135C79.6206 9.53857 79.5791 9.4458 79.54 9.35303C79.5059 9.26025 79.4717 9.18701 79.4375 9.1333C79.3838 9.06006 79.3325 8.99658 79.2837 8.94287C79.2397 8.88428 79.1909 8.83301 79.1372 8.78906C79.0835 8.74023 79.0249 8.69629 78.9614 8.65723C78.8979 8.61816 78.8271 8.5791 78.749 8.54004C78.6318 8.48145 78.4976 8.43506 78.3462 8.40088C78.1997 8.3667 78.0264 8.34961 77.8262 8.34961C77.6309 8.34961 77.4331 8.39844 77.2329 8.49609C77.0327 8.58887 76.8716 8.7207 76.7495 8.8916C76.6567 9.01855 76.5713 9.16504 76.4932 9.33105C76.4199 9.49707 76.354 9.67773 76.2954 9.87305C76.2417 10.0635 76.2002 10.2637 76.1709 10.4736C76.1416 10.6787 76.127 10.8813 76.127 11.0815C76.127 11.1401 76.1318 11.2451 76.1416 11.3965C76.1514 11.543 76.1685 11.709 76.1929 11.8945C76.2222 12.0801 76.2612 12.2705 76.3101 12.4658C76.3638 12.6611 76.4346 12.8345 76.5225 12.9858C76.708 13.3521 76.9546 13.6523 77.2622 13.8867C77.5747 14.1211 77.936 14.2432 78.3462 14.2529C78.4683 14.2529 78.5854 14.2383 78.6978 14.209C78.8149 14.1797 78.9224 14.1431 79.02 14.0991C79.0396 14.0894 79.0713 14.0698 79.1152 14.0405C79.1592 14.0112 79.2056 13.9795 79.2544 13.9453C79.3032 13.9062 79.3496 13.8672 79.3936 13.8281C79.4424 13.7891 79.479 13.7573 79.5034 13.7329C79.5669 13.6597 79.6255 13.5791 79.6792 13.4912C79.7329 13.4033 79.7769 13.3179 79.811 13.2349C79.8501 13.147 79.8818 13.0688 79.9062 13.0005C79.9307 12.9272 79.9478 12.8711 79.9575 12.832C79.9722 12.7734 80.0186 12.7441 80.0967 12.7441C80.1211 12.7441 80.1406 12.7563 80.1553 12.7808C80.1699 12.8052 80.1797 12.8345 80.1846 12.8687C80.1943 12.8979 80.1992 12.9272 80.1992 12.9565C80.2041 12.9858 80.2065 13.0078 80.2065 13.0225C80.2065 13.3203 80.1406 13.5889 80.0088 13.8281C79.8818 14.0674 79.7085 14.2725 79.4888 14.4434C79.2788 14.6143 79.0518 14.751 78.8076 14.8535C78.5635 14.9512 78.3047 15 78.0312 15C77.6943 15 77.3843 14.9609 77.1011 14.8828C76.8228 14.7998 76.5688 14.6899 76.3394 14.5532C76.1147 14.4116 75.9146 14.2456 75.7388 14.0552C75.5679 13.8599 75.4189 13.6499 75.292 13.4253C75.1357 13.1519 75.0112 12.8394 74.9185 12.4878C74.8306 12.1362 74.7866 11.7944 74.7866 11.4624C74.7866 10.9302 74.9062 10.4346 75.1455 9.97559C75.3848 9.51172 75.7339 9.07471 76.1929 8.66455C76.4663 8.43506 76.7422 8.25684 77.0205 8.12988C77.3037 8.00293 77.6235 7.93945 77.98 7.93945C78.1216 7.93945 78.2534 7.94678 78.3755 7.96143C78.5024 7.97119 78.6294 7.99316 78.7563 8.02734C78.8882 8.05664 79.0249 8.09814 79.1665 8.15186C79.3081 8.20557 79.4668 8.27148 79.6426 8.34961C79.6475 8.35449 79.6621 8.35693 79.6865 8.35693C79.7451 8.35693 79.7891 8.33984 79.8184 8.30566C79.8477 8.27148 79.8721 8.23242 79.8916 8.18848C79.916 8.14453 79.9404 8.10547 79.9648 8.07129C79.9893 8.03711 80.0283 8.02002 80.082 8.02002C80.1016 8.02002 80.1235 8.03223 80.1479 8.05664C80.1724 8.08105 80.1846 8.10547 80.1846 8.12988ZM83.9565 11.3379L85.209 11.2866C85.4043 11.272 85.5532 11.2256 85.6558 11.1475C85.7583 11.0645 85.834 10.9668 85.8828 10.8545C85.9365 10.7373 85.9756 10.6104 86 10.4736C86.0293 10.3369 86.0708 10.2026 86.1245 10.0708C86.1392 10.0122 86.1636 9.98291 86.1978 9.98291C86.2661 9.98291 86.3003 10 86.3003 10.0342V10.3271C86.3003 10.5225 86.2905 10.7349 86.271 10.9644C86.2563 11.189 86.249 11.3818 86.249 11.543C86.249 11.6992 86.2612 11.8652 86.2856 12.041C86.3149 12.2168 86.3296 12.3975 86.3296 12.583C86.3296 12.6074 86.3271 12.6465 86.3223 12.7002C86.3174 12.7539 86.3101 12.8101 86.3003 12.8687C86.2905 12.9272 86.2759 12.9785 86.2563 13.0225C86.2417 13.0664 86.2197 13.0884 86.1904 13.0884C86.1367 13.0884 86.1025 13.064 86.0879 13.0151C86.0781 12.9614 86.0684 12.9126 86.0586 12.8687C86.0488 12.8101 86.0317 12.7393 86.0073 12.6562C85.9829 12.5732 85.9561 12.4902 85.9268 12.4072C85.8975 12.3193 85.8706 12.2412 85.8462 12.1729C85.8218 12.1045 85.8047 12.0581 85.7949 12.0337C85.751 11.9458 85.6655 11.8774 85.5386 11.8286C85.4116 11.7749 85.2676 11.7358 85.1064 11.7114C84.9502 11.6821 84.7866 11.665 84.6157 11.6602C84.4497 11.6504 84.3032 11.6455 84.1763 11.6455H83.9565C83.8784 11.6455 83.8296 11.6626 83.8101 11.6968C83.7905 11.7261 83.7808 11.7749 83.7808 11.8433V14.4141C83.7808 14.5605 83.8271 14.6533 83.9199 14.6924H86.1465C86.2441 14.6924 86.3442 14.6924 86.4468 14.6924C86.5542 14.6875 86.625 14.6753 86.6592 14.6558C86.7324 14.6362 86.7935 14.5947 86.8423 14.5312C86.896 14.4629 86.9399 14.3994 86.9741 14.3408C86.9888 14.3164 87.0156 14.2651 87.0547 14.187C87.0986 14.1089 87.1426 14.0259 87.1865 13.938C87.2354 13.8452 87.2793 13.7598 87.3184 13.6816C87.3623 13.6035 87.394 13.5522 87.4136 13.5278C87.4429 13.4692 87.4917 13.4399 87.5601 13.4399C87.604 13.4399 87.6357 13.457 87.6553 13.4912V14.5825C87.6553 14.6265 87.6504 14.668 87.6406 14.707C87.6357 14.7412 87.6284 14.7852 87.6187 14.8389C87.5991 14.9072 87.5747 14.9536 87.5454 14.978C87.5161 14.9976 87.46 15.0171 87.377 15.0366C86.8838 15.0366 86.415 15.0342 85.9707 15.0293C85.5312 15.0244 85.0845 15.0195 84.6304 15.0146C84.1763 15.0146 83.6978 15.0122 83.1948 15.0073C82.6919 15.0024 82.1304 15 81.5103 15C81.4272 15 81.3857 14.9585 81.3857 14.8755C81.3857 14.8218 81.4126 14.7803 81.4663 14.751C81.52 14.7217 81.5688 14.7021 81.6128 14.6924C81.6421 14.6924 81.6885 14.6899 81.752 14.6851C81.8203 14.6802 81.8936 14.6777 81.9717 14.6777C82.0498 14.6729 82.1255 14.668 82.1987 14.6631C82.272 14.6582 82.3354 14.6558 82.3892 14.6558C82.5063 14.6558 82.5649 14.563 82.5649 14.3774V8.97217C82.5649 8.88916 82.5552 8.78662 82.5356 8.66455C82.521 8.54248 82.4893 8.43994 82.4404 8.35693C82.4062 8.33252 82.3892 8.32031 82.3892 8.32031L81.3638 8.21777C81.271 8.21777 81.2246 8.17139 81.2246 8.07861C81.2246 8.0542 81.2295 8.0249 81.2393 7.99072C81.249 7.95166 81.2808 7.93213 81.3345 7.93213H82.5356C83.0044 7.93213 83.4658 7.92969 83.9199 7.9248C84.374 7.91992 84.7915 7.91748 85.1724 7.91748H86.2124C86.2905 7.91748 86.3711 7.91992 86.4541 7.9248C86.542 7.9248 86.625 7.92725 86.7031 7.93213C86.7812 7.93213 86.8521 7.93457 86.9155 7.93945C86.979 7.93945 87.0278 7.93945 87.062 7.93945C87.0962 7.94434 87.123 7.96143 87.1426 7.99072C87.1621 8.02002 87.1743 8.05664 87.1792 8.10059C87.189 8.13965 87.1938 8.18115 87.1938 8.2251C87.1987 8.26416 87.2012 8.2959 87.2012 8.32031V9.51416C87.2012 9.55811 87.1841 9.58008 87.1499 9.58008C87.0962 9.58008 87.0547 9.5459 87.0254 9.47754C87.001 9.4043 86.9619 9.31885 86.9082 9.22119C86.8643 9.11377 86.8105 9.00635 86.7471 8.89893C86.6836 8.7915 86.6372 8.7085 86.6079 8.6499C86.564 8.56689 86.4956 8.50342 86.4028 8.45947C86.3149 8.41064 86.2148 8.37402 86.1025 8.34961C85.9902 8.32031 85.8755 8.29834 85.7583 8.28369C85.6411 8.26904 85.5386 8.25195 85.4507 8.23242C85.4214 8.23242 85.3457 8.22998 85.2236 8.2251C85.1016 8.22021 84.9624 8.21777 84.8062 8.21777C84.6548 8.21289 84.5034 8.20801 84.3521 8.20312C84.2056 8.19824 84.0908 8.1958 84.0078 8.1958C83.9053 8.1958 83.8418 8.2251 83.8174 8.28369C83.793 8.34229 83.7808 8.43018 83.7808 8.54736V11.1621C83.7808 11.2061 83.7954 11.2476 83.8247 11.2866C83.8589 11.3208 83.9028 11.3379 83.9565 11.3379Z" fill="#07C3FF"/>
<line x1="-4.37114e-08" y1="20.5" x2="97" y2="20.5" stroke="#07C3FF"/>
<line x1="-4.37114e-08" y1="0.500015" x2="97" y2="0.500007" stroke="white"/>
</svg>
