<svg width="97" height="21" viewBox="0 0 97 21" fill="none" xmlns="http://www.w3.org/2000/svg">
<path d="M9.59375 9.8584V9.75586C9.59375 9.46777 9.62061 9.16504 9.67432 8.84766C9.73291 8.52539 9.81348 8.20557 9.91602 7.88818C10.0186 7.5708 10.1431 7.26318 10.2896 6.96533C10.436 6.66748 10.6021 6.39404 10.7876 6.14502C10.9927 5.87646 11.2222 5.63721 11.4761 5.42725C11.7349 5.2124 12.0107 5.0293 12.3037 4.87793C12.6016 4.72656 12.9165 4.61182 13.2485 4.53369C13.5806 4.45068 13.9248 4.40918 14.2812 4.40918C14.5791 4.40918 14.8867 4.43848 15.2041 4.49707C15.5215 4.55078 15.8145 4.63379 16.083 4.74609C16.3027 4.84863 16.5005 4.97314 16.6763 5.11963C16.8569 5.26123 17.0474 5.40283 17.2476 5.54443C17.2671 5.56885 17.2866 5.5835 17.3062 5.58838C17.3306 5.59326 17.3525 5.5957 17.3721 5.5957C17.416 5.5957 17.4551 5.56396 17.4893 5.50049C17.543 5.40771 17.5918 5.29053 17.6357 5.14893C17.6797 5.00244 17.7285 4.87793 17.7822 4.77539C17.8018 4.73145 17.8237 4.70703 17.8481 4.70215C17.8726 4.69238 17.8994 4.6875 17.9287 4.6875C17.9629 4.6875 17.9873 4.69971 18.002 4.72412C18.0215 4.74854 18.0312 4.76562 18.0312 4.77539C18.0703 4.94629 18.0923 5.11719 18.0972 5.28809C18.1069 5.45898 18.1118 5.63721 18.1118 5.82275V6.24756C18.1118 6.31104 18.1118 6.37451 18.1118 6.43799C18.1118 6.50146 18.1143 6.56738 18.1191 6.63574C18.1387 6.82129 18.1631 6.98242 18.1924 7.11914C18.2217 7.25586 18.2363 7.3877 18.2363 7.51465C18.2363 7.58789 18.2241 7.66602 18.1997 7.74902C18.1802 7.82715 18.1362 7.86621 18.0679 7.86621C18.0386 7.86621 17.9971 7.82959 17.9434 7.75635C17.8945 7.68311 17.8433 7.60254 17.7896 7.51465C17.7358 7.42187 17.6821 7.33154 17.6284 7.24365C17.5796 7.15576 17.5454 7.09717 17.5259 7.06787C17.3892 6.87256 17.2573 6.68701 17.1304 6.51123C17.0083 6.33545 16.8813 6.17188 16.7495 6.02051C16.6226 5.86426 16.4858 5.72266 16.3394 5.5957C16.1978 5.46387 16.0391 5.34668 15.8633 5.24414C15.7119 5.15137 15.5679 5.08057 15.4312 5.03174C15.2944 4.97803 15.1602 4.93896 15.0283 4.91455C14.9014 4.89014 14.7744 4.87549 14.6475 4.87061C14.5205 4.86572 14.3911 4.86328 14.2593 4.86328C14.0542 4.86328 13.8638 4.89258 13.688 4.95117C13.5171 5.00488 13.356 5.08057 13.2046 5.17822C13.0532 5.27588 12.9116 5.38818 12.7798 5.51514C12.6528 5.64209 12.5283 5.77637 12.4062 5.91797C12.0547 6.33301 11.7886 6.88721 11.6079 7.58057C11.4321 8.26904 11.3442 9.09424 11.3442 10.0562C11.3442 10.5347 11.3857 10.9692 11.4688 11.3599C11.5566 11.7456 11.6641 12.0898 11.791 12.3926C11.918 12.6904 12.0571 12.9492 12.2085 13.1689C12.3647 13.3838 12.5112 13.5596 12.6479 13.6963C12.7944 13.8525 12.9336 13.9893 13.0654 14.1064C13.2021 14.2188 13.3438 14.3115 13.4902 14.3848C13.6367 14.458 13.7954 14.5142 13.9663 14.5532C14.1372 14.5874 14.3301 14.6045 14.5449 14.6045C14.8721 14.6045 15.1919 14.5337 15.5044 14.3921C15.8169 14.2505 16.1221 14.0649 16.4199 13.8354C16.4834 13.7866 16.5493 13.728 16.6177 13.6597C16.686 13.5913 16.752 13.5229 16.8154 13.4546C16.8838 13.3862 16.9448 13.3203 16.9985 13.2568C17.0571 13.1885 17.106 13.1274 17.145 13.0737C17.3013 12.8296 17.438 12.5928 17.5552 12.3633C17.6724 12.1338 17.7798 11.897 17.8774 11.6528C17.9263 11.5796 18.0117 11.543 18.1338 11.543C18.1875 11.543 18.2241 11.5625 18.2437 11.6016C18.2632 11.6406 18.2729 11.687 18.2729 11.7407C18.1948 12.0093 18.1265 12.2534 18.0679 12.4731C18.0093 12.688 17.9458 12.9175 17.8774 13.1616C17.8335 13.3374 17.8018 13.5107 17.7822 13.6816C17.7627 13.8477 17.7432 13.9966 17.7236 14.1284C17.7041 14.2554 17.6821 14.3579 17.6577 14.436C17.6333 14.5142 17.5942 14.5532 17.5405 14.5532C17.5015 14.5532 17.4697 14.5386 17.4453 14.5093C17.4209 14.48 17.3965 14.4336 17.3721 14.3701C17.3623 14.3213 17.3452 14.2798 17.3208 14.2456C17.3013 14.2065 17.2646 14.187 17.2109 14.187C17.1572 14.187 17.106 14.1968 17.0571 14.2163C17.0132 14.2358 16.957 14.2676 16.8887 14.3115C16.8203 14.3506 16.7349 14.3994 16.6323 14.458C16.5298 14.5117 16.3931 14.5752 16.2222 14.6484C15.9097 14.7754 15.5752 14.8779 15.2188 14.9561C14.8623 15.0293 14.5083 15.0659 14.1567 15.0659C13.644 15.0659 13.1753 15 12.7505 14.8682C12.3257 14.7314 11.9229 14.502 11.542 14.1797C11.2393 13.9209 10.9683 13.6255 10.729 13.2935C10.4897 12.9565 10.2847 12.6001 10.1138 12.2241C9.94775 11.8481 9.81836 11.46 9.72559 11.0596C9.6377 10.6543 9.59375 10.2539 9.59375 9.8584ZM19.5767 14.8608C19.5767 14.7485 19.6255 14.6851 19.7231 14.6704H20.0015C20.0894 14.6704 20.1699 14.6704 20.2432 14.6704C20.3164 14.6655 20.3799 14.6558 20.4336 14.6411C20.4873 14.6265 20.5288 14.6021 20.5581 14.5679C20.5923 14.5337 20.6094 14.4873 20.6094 14.4287V8.52539C20.6094 8.47168 20.5874 8.42773 20.5435 8.39355C20.4995 8.35449 20.4507 8.33496 20.397 8.33496H19.877H19.7378C19.7134 8.33496 19.6841 8.33252 19.6499 8.32764C19.6157 8.32275 19.5767 8.31787 19.5327 8.31299C19.5083 8.30322 19.4863 8.28369 19.4668 8.25439C19.4521 8.2251 19.4448 8.19824 19.4448 8.17383C19.4448 8.08105 19.5034 8.03467 19.6206 8.03467H21.4224C21.437 8.03467 21.4736 8.03223 21.5322 8.02734C21.5957 8.02246 21.6616 8.01758 21.73 8.0127C21.7983 8.00781 21.8594 8.00293 21.9131 7.99805C21.9668 7.99316 21.9985 7.99072 22.0083 7.99072C22.0767 7.98584 22.1523 7.98096 22.2354 7.97607C22.3232 7.97119 22.394 7.96875 22.4478 7.96875C22.4624 7.96875 22.4893 7.97119 22.5283 7.97607C22.5674 7.97607 22.6089 7.97852 22.6528 7.9834C22.6968 7.9834 22.7383 7.98584 22.7773 7.99072C22.8213 7.99072 22.8506 7.99072 22.8652 7.99072C22.9336 8.00537 22.9678 8.04443 22.9678 8.10791C22.9678 8.16162 22.9507 8.21533 22.9165 8.26904C22.8872 8.30322 22.8408 8.32031 22.7773 8.32031H21.9717C21.9375 8.32031 21.9106 8.33984 21.8911 8.37891C21.8716 8.41309 21.8545 8.45703 21.8398 8.51074C21.8301 8.55957 21.8228 8.61084 21.8179 8.66455C21.8179 8.71826 21.8179 8.76465 21.8179 8.80371C21.8179 9.05762 21.8301 9.31152 21.8545 9.56543C21.8789 9.81445 21.8911 10.1001 21.8911 10.4224V14.4653C21.8911 14.4995 21.8984 14.541 21.9131 14.5898C21.9326 14.6338 21.9644 14.6558 22.0083 14.6558H24.3521C24.4839 14.6558 24.6084 14.5972 24.7256 14.48C24.8428 14.3628 24.9502 14.2261 25.0479 14.0698C25.1504 13.9136 25.2383 13.7598 25.3115 13.6084C25.3896 13.4521 25.4531 13.3374 25.502 13.2642C25.5312 13.23 25.5605 13.2129 25.5898 13.2129C25.6143 13.2129 25.6362 13.2349 25.6558 13.2788C25.6753 13.3472 25.6851 13.4082 25.6851 13.4619C25.6899 13.5107 25.6924 13.584 25.6924 13.6816C25.6924 13.7207 25.6851 13.7793 25.6704 13.8574C25.6606 13.9307 25.646 14.0088 25.6265 14.0918C25.6118 14.1748 25.5972 14.2554 25.5825 14.3335C25.5728 14.4067 25.5679 14.4653 25.5679 14.5093C25.5679 14.5337 25.5679 14.5679 25.5679 14.6118C25.5679 14.6509 25.5654 14.6924 25.5605 14.7363C25.5605 14.7803 25.5581 14.8218 25.5532 14.8608C25.5483 14.895 25.541 14.9194 25.5312 14.9341C25.4629 14.978 25.4019 15 25.3481 15C24.7378 15 24.0859 14.9951 23.3926 14.9854C22.6992 14.9707 22.0083 14.9634 21.3198 14.9634C21.1978 14.9634 21.0708 14.9658 20.939 14.9707C20.8071 14.9756 20.6802 14.9829 20.5581 14.9927C20.436 14.9976 20.3188 15.0024 20.2065 15.0073C20.0991 15.0122 20.0063 15.0146 19.9282 15.0146C19.8257 15.0146 19.7402 15.0098 19.6719 15C19.6084 14.9854 19.5767 14.939 19.5767 14.8608ZM26.5054 11.5503C26.5054 11.2622 26.5322 11.001 26.5859 10.7666C26.6396 10.5273 26.7202 10.3052 26.8276 10.1001C26.9351 9.89502 27.0669 9.70215 27.2231 9.52148C27.3843 9.33594 27.5674 9.15527 27.7725 8.97949C27.9336 8.84277 28.1069 8.73047 28.2925 8.64258C28.478 8.55469 28.6685 8.48633 28.8638 8.4375C29.064 8.38379 29.269 8.34717 29.479 8.32764C29.689 8.30811 29.8965 8.29834 30.1016 8.29834C30.2773 8.29834 30.4629 8.3252 30.6582 8.37891C30.8584 8.43262 31.0513 8.50342 31.2368 8.59131C31.4224 8.67432 31.5933 8.76709 31.7495 8.86963C31.9058 8.96729 32.0352 9.0625 32.1377 9.15527C32.4941 9.49219 32.77 9.8584 32.9653 10.2539C33.1606 10.6445 33.2583 11.0742 33.2583 11.543C33.2583 11.7969 33.2388 12.0312 33.1997 12.2461C33.1655 12.4561 33.1118 12.6538 33.0386 12.8394C32.9702 13.0249 32.8823 13.2007 32.7749 13.3667C32.6724 13.5327 32.5527 13.6963 32.416 13.8574C32.2891 13.999 32.1377 14.1382 31.9619 14.2749C31.791 14.4116 31.6006 14.5337 31.3906 14.6411C31.1807 14.7485 30.9536 14.8364 30.7095 14.9048C30.4702 14.9683 30.2212 15 29.9624 15C29.5181 15 29.1079 14.9414 28.7319 14.8242C28.3608 14.7021 28.0142 14.4897 27.6919 14.187C26.9009 13.4985 26.5054 12.6196 26.5054 11.5503ZM29.8965 8.61328C29.6768 8.61328 29.4888 8.6377 29.3325 8.68652C29.1812 8.73047 29.0444 8.79639 28.9224 8.88428C28.8052 8.96729 28.6978 9.06982 28.6001 9.19189C28.5024 9.31396 28.4023 9.45068 28.2998 9.60205C28.1143 9.89014 27.9922 10.1978 27.9336 10.5249C27.875 10.8472 27.8457 11.1743 27.8457 11.5063C27.8457 11.8872 27.8823 12.2681 27.9556 12.6489C28.0337 13.0249 28.1826 13.3911 28.4023 13.7476C28.4609 13.8501 28.5439 13.9575 28.6514 14.0698C28.7588 14.1772 28.876 14.2773 29.0029 14.3701C29.1299 14.458 29.2593 14.5337 29.3911 14.5972C29.5278 14.6558 29.6548 14.6851 29.772 14.6851C30.0015 14.6851 30.2017 14.646 30.3726 14.5679C30.5483 14.4897 30.7046 14.3872 30.8413 14.2603C30.978 14.1284 31.0977 13.9795 31.2002 13.8135C31.3076 13.6426 31.4102 13.4668 31.5078 13.2861C31.6299 13.0469 31.7178 12.7905 31.7715 12.5171C31.8301 12.2388 31.8594 11.9385 31.8594 11.6162C31.8594 11.3867 31.8423 11.1719 31.8081 10.9717C31.7788 10.7715 31.73 10.5786 31.6616 10.3931C31.5981 10.2075 31.5176 10.0269 31.4199 9.85107C31.3223 9.67041 31.2075 9.4873 31.0757 9.30176C30.9438 9.10156 30.7754 8.93799 30.5703 8.81104C30.3701 8.6792 30.1455 8.61328 29.8965 8.61328ZM39.5498 14.8242C39.5498 14.6826 39.5645 14.5068 39.5938 14.2969C39.623 14.0869 39.6377 13.8818 39.6377 13.6816C39.6377 13.6475 39.6304 13.606 39.6157 13.5571C39.606 13.5034 39.5791 13.4766 39.5352 13.4766C39.5156 13.4766 39.4912 13.5034 39.4619 13.5571C39.4375 13.606 39.4033 13.6572 39.3594 13.7109C39.2031 13.8867 39.0469 14.0527 38.8906 14.209C38.7344 14.3604 38.5684 14.4946 38.3926 14.6118C38.2168 14.729 38.0264 14.8218 37.8213 14.8901C37.6162 14.9536 37.3892 14.9854 37.1401 14.9854C36.647 14.9854 36.2124 14.8218 35.8364 14.4946C35.7144 14.397 35.6143 14.292 35.5361 14.1797C35.4629 14.0625 35.4043 13.9404 35.3604 13.8135C35.3164 13.6865 35.2871 13.5522 35.2725 13.4106C35.2578 13.269 35.2505 13.1226 35.2505 12.9712V8.6499C35.2505 8.57666 35.2432 8.51074 35.2285 8.45215C35.2188 8.38867 35.1772 8.35693 35.104 8.35693H33.9614C33.9175 8.35693 33.8809 8.3374 33.8516 8.29834C33.8223 8.25928 33.8076 8.22021 33.8076 8.18115C33.8076 8.16162 33.8125 8.125 33.8223 8.07129C33.8369 8.01758 33.8711 7.99072 33.9248 7.99072H36.3418C36.4199 7.99072 36.459 8.0249 36.459 8.09326V12.5903C36.459 12.7759 36.4858 12.959 36.5396 13.1396C36.5933 13.3203 36.6738 13.4814 36.7812 13.623C36.8887 13.7646 37.0205 13.8794 37.1768 13.9673C37.3379 14.0552 37.5234 14.0991 37.7334 14.0991C37.9775 14.0991 38.1875 14.0771 38.3633 14.0332C38.5391 13.9844 38.7197 13.9087 38.9053 13.8062C39.1104 13.6841 39.291 13.5083 39.4473 13.2788C39.5059 13.1958 39.5522 13.1177 39.5864 13.0444C39.6206 12.9712 39.6475 12.8979 39.667 12.8247C39.6865 12.7515 39.6987 12.6733 39.7036 12.5903C39.7134 12.5073 39.7207 12.4146 39.7256 12.312L39.7988 8.6792C39.7988 8.66455 39.7964 8.63525 39.7915 8.59131C39.7915 8.54248 39.7842 8.49121 39.7695 8.4375C39.7598 8.38379 39.7427 8.3374 39.7183 8.29834C39.6987 8.25439 39.667 8.23242 39.623 8.23242C39.5938 8.23242 39.5352 8.2373 39.4473 8.24707C39.3643 8.25684 39.2666 8.26172 39.1543 8.26172C39.0469 8.26172 38.9443 8.26416 38.8467 8.26904C38.7539 8.26904 38.6807 8.26904 38.627 8.26904C38.5244 8.26904 38.439 8.26416 38.3706 8.25439C38.3022 8.24463 38.2681 8.20801 38.2681 8.14453C38.2681 8.11035 38.2705 8.07373 38.2754 8.03467C38.2803 7.99561 38.2998 7.96387 38.334 7.93945C38.3779 7.91016 38.4268 7.89062 38.4805 7.88086C38.5391 7.87109 38.5952 7.86621 38.6489 7.86621C38.7173 7.86621 38.7954 7.87109 38.8833 7.88086C38.9712 7.89062 39.0591 7.90039 39.147 7.91016C39.2397 7.91992 39.3276 7.92969 39.4106 7.93945C39.4985 7.94922 39.5742 7.9541 39.6377 7.9541H41.0439C41.0781 7.9541 41.0952 7.97119 41.0952 8.00537L40.8682 13.7695V13.8721C40.8682 13.8965 40.8682 13.916 40.8682 13.9307C40.8682 13.9453 40.8706 13.9648 40.8755 13.9893C40.8999 14.0723 40.9365 14.1479 40.9854 14.2163C41.0342 14.2847 41.1123 14.3188 41.2197 14.3188C41.2832 14.3188 41.3516 14.314 41.4248 14.3042C41.498 14.2944 41.5688 14.2822 41.6372 14.2676C41.7056 14.2529 41.769 14.2407 41.8276 14.231C41.8911 14.2212 41.9424 14.2163 41.9814 14.2163C42.0352 14.2163 42.0669 14.2358 42.0767 14.2749C42.0913 14.314 42.0986 14.3481 42.0986 14.3774C42.0986 14.436 42.0767 14.4824 42.0327 14.5166C41.9937 14.5459 41.9521 14.5728 41.9082 14.5972C41.8008 14.6313 41.7031 14.6484 41.6152 14.6484C41.5615 14.6484 41.5103 14.6509 41.4614 14.6558C41.4175 14.6558 41.354 14.6606 41.271 14.6704C41.1147 14.6899 40.9438 14.7217 40.7583 14.7656C40.5776 14.8096 40.4141 14.8535 40.2676 14.8975C40.1699 14.9365 40.0771 14.9707 39.9893 15C39.9062 15.0244 39.8135 15.0366 39.7109 15.0366C39.6572 15.0366 39.6157 15.0146 39.5864 14.9707C39.562 14.9268 39.5498 14.8779 39.5498 14.8242ZM42.853 14.8755C42.853 14.8413 42.8701 14.812 42.9043 14.7876C42.9434 14.7632 42.9873 14.7437 43.0361 14.729C43.085 14.7144 43.1289 14.7046 43.168 14.6997C43.2119 14.6899 43.2412 14.6851 43.2559 14.6851H43.4243C43.4829 14.6851 43.5439 14.6826 43.6074 14.6777C43.6758 14.6729 43.7417 14.668 43.8052 14.6631C43.8687 14.6533 43.9224 14.6436 43.9663 14.6338C44.0151 14.624 44.0493 14.6118 44.0688 14.5972C44.1274 14.5386 44.1567 14.3896 44.1567 14.1504V8.54736C44.1567 8.38623 44.1152 8.29834 44.0322 8.28369C43.876 8.26904 43.6929 8.26172 43.4829 8.26172C43.3755 8.26172 43.2754 8.25684 43.1826 8.24707C43.0947 8.23242 43.0093 8.21533 42.9263 8.1958C42.8774 8.18115 42.853 8.15186 42.853 8.10791C42.8872 8.02979 42.9385 7.98096 43.0068 7.96143C43.0801 7.94189 43.1558 7.93213 43.2339 7.93213C43.4048 7.93213 43.5854 7.94189 43.7759 7.96143C43.9663 7.97607 44.1274 7.9834 44.2593 7.9834C44.5815 7.9834 44.9136 7.97607 45.2554 7.96143C45.6021 7.94189 45.9927 7.93213 46.4272 7.93213C46.6372 7.93213 46.8398 7.93457 47.0352 7.93945C47.2354 7.94434 47.4331 7.95898 47.6284 7.9834C47.687 7.99316 47.7676 8.01514 47.8701 8.04932C47.9775 8.07861 48.0874 8.11279 48.1997 8.15186C48.3169 8.19092 48.4243 8.23242 48.522 8.27637C48.6245 8.31543 48.6978 8.34717 48.7417 8.37158C49.3521 8.70361 49.8135 9.13086 50.126 9.65332C50.4385 10.1709 50.5947 10.813 50.5947 11.5796C50.5801 11.7847 50.5605 11.9824 50.5361 12.1729C50.5117 12.3633 50.4653 12.5537 50.397 12.7441C50.3335 12.9297 50.2358 13.1177 50.104 13.3081C49.9722 13.4985 49.7891 13.6987 49.5547 13.9087C49.4229 14.0161 49.2837 14.1162 49.1372 14.209C48.9907 14.3018 48.8467 14.3848 48.7051 14.458C48.5684 14.5312 48.439 14.5947 48.3169 14.6484C48.1997 14.6973 48.0972 14.7339 48.0093 14.7583C47.77 14.8169 47.5405 14.8633 47.3208 14.8975C47.1011 14.9316 46.8838 14.9561 46.6689 14.9707C46.4541 14.9854 46.2344 14.9951 46.0098 15C45.79 15 45.5581 15 45.314 15H44.0542H42.9556C42.8872 14.9854 42.853 14.9438 42.853 14.8755ZM45.3213 14.2896C45.3213 14.3726 45.3237 14.4482 45.3286 14.5166C45.3384 14.5801 45.3652 14.624 45.4092 14.6484C45.4482 14.6582 45.4995 14.668 45.563 14.6777C45.6313 14.6826 45.7046 14.6875 45.7827 14.6924C45.8657 14.6924 45.9463 14.6924 46.0244 14.6924C46.1074 14.6924 46.1831 14.6924 46.2515 14.6924C46.4858 14.6924 46.6934 14.6753 46.874 14.6411C47.0596 14.6021 47.2256 14.5508 47.3721 14.4873C47.5234 14.4238 47.6577 14.3506 47.7749 14.2676C47.897 14.1797 48.0142 14.0894 48.1265 13.9966C48.3022 13.8354 48.4561 13.6646 48.5879 13.4839C48.7246 13.3032 48.8369 13.1079 48.9248 12.8979C49.0176 12.6831 49.0859 12.4512 49.1299 12.2021C49.1787 11.9482 49.2031 11.6675 49.2031 11.3599C49.2031 11.1304 49.1885 10.918 49.1592 10.7227C49.1299 10.5225 49.0811 10.3345 49.0127 10.1587C48.9492 9.98291 48.8638 9.81445 48.7563 9.65332C48.6489 9.49219 48.5195 9.33105 48.3682 9.16992C48.1973 8.99414 48.0142 8.84277 47.8188 8.71582C47.6284 8.58398 47.4282 8.479 47.2183 8.40088C47.0083 8.31787 46.7959 8.25684 46.5811 8.21777C46.3711 8.17871 46.1636 8.15918 45.9585 8.15918C45.8315 8.15918 45.7144 8.17627 45.6069 8.21045C45.4995 8.23975 45.4043 8.31543 45.3213 8.4375V14.2896Z" fill="white"/>
<path d="M51.7007 14.8975C51.7007 14.7461 51.8081 14.6704 52.0229 14.6704C52.1743 14.6704 52.3306 14.6582 52.4917 14.6338C52.6528 14.6045 52.8042 14.5703 52.9458 14.5312C53.0239 14.5117 53.0923 14.4824 53.1509 14.4434C53.2095 14.3994 53.2388 14.3237 53.2388 14.2163V5.21484C53.2095 5.14648 53.1533 5.08789 53.0703 5.03906C52.9922 4.99023 52.8994 4.95117 52.792 4.92188C52.6846 4.89258 52.5698 4.86816 52.4478 4.84863C52.3306 4.8291 52.2158 4.81201 52.1035 4.79736C51.9961 4.78271 51.896 4.76807 51.8032 4.75342C51.7153 4.73389 51.6494 4.71191 51.6055 4.6875C51.5713 4.67773 51.5542 4.64355 51.5542 4.58496C51.5542 4.54102 51.5713 4.5166 51.6055 4.51172C51.625 4.50195 51.6543 4.49219 51.6934 4.48242C51.7324 4.47266 51.8081 4.46777 51.9204 4.46777C51.9595 4.46777 52.0498 4.47266 52.1914 4.48242C52.3379 4.4873 52.4966 4.49707 52.6675 4.51172C52.8384 4.52148 52.9995 4.53125 53.1509 4.54102C53.3071 4.5459 53.4121 4.54834 53.4658 4.54834H54.4546C54.4741 4.54834 54.5205 4.5459 54.5938 4.54102C54.6719 4.53613 54.7549 4.53369 54.8428 4.53369C54.9307 4.52881 55.0088 4.52393 55.0771 4.51904C55.1504 4.51416 55.1919 4.51172 55.2017 4.51172C55.3677 4.4873 55.5337 4.47266 55.6997 4.46777C55.8657 4.46289 56.0342 4.46045 56.2051 4.46045C56.5029 4.46045 56.8081 4.47266 57.1206 4.49707C57.438 4.5166 57.7358 4.58008 58.0142 4.6875C58.2974 4.79492 58.5537 4.93896 58.7832 5.11963C59.0127 5.29541 59.208 5.49805 59.3691 5.72754C59.5352 5.95215 59.6621 6.19873 59.75 6.46729C59.8428 6.73584 59.8892 7.01172 59.8892 7.29492C59.8892 7.79297 59.7988 8.2251 59.6182 8.59131C59.4424 8.95264 59.1567 9.27734 58.7612 9.56543C58.5171 9.74121 58.2192 9.89014 57.8677 10.0122C57.521 10.1294 57.1255 10.188 56.6812 10.188C56.4907 10.188 56.3027 10.1855 56.1172 10.1807C55.9316 10.1709 55.7412 10.1562 55.5459 10.1367C55.5215 10.1367 55.4922 10.1318 55.458 10.1221C55.4238 10.1123 55.3799 10.1074 55.3262 10.1074H55.187C55.1431 10.1074 55.1187 10.1172 55.1138 10.1367C55.0356 10.1611 54.9697 10.2051 54.916 10.2686C54.8623 10.3271 54.8354 10.4297 54.8354 10.5762V11.9824C54.8354 12.3145 54.8208 12.6758 54.7915 13.0664C54.7671 13.457 54.7549 13.8306 54.7549 14.187C54.7549 14.2896 54.7769 14.3628 54.8208 14.4067C54.8647 14.4458 54.9282 14.4751 55.0112 14.4946C55.231 14.5483 55.4385 14.5874 55.6338 14.6118C55.8291 14.6313 56.0317 14.6631 56.2417 14.707C56.3149 14.7314 56.3589 14.7583 56.3735 14.7876C56.3931 14.812 56.4028 14.8413 56.4028 14.8755C56.4028 14.9048 56.3882 14.9292 56.3589 14.9487C56.3345 14.9634 56.3027 14.978 56.2637 14.9927C56.2295 15.0024 56.1929 15.0098 56.1538 15.0146C56.1196 15.0195 56.0903 15.022 56.0659 15.022C56.0073 15.022 55.9341 15.0195 55.8462 15.0146C55.7632 15.0146 55.6777 15.0122 55.5898 15.0073C55.5068 15.0073 55.4263 15.0049 55.3481 15C55.2749 15 55.2163 15 55.1724 15H52.9604C52.7749 15 52.5967 15.0024 52.4258 15.0073C52.2598 15.0171 52.1377 15.022 52.0596 15.022H51.7886C51.73 15.0171 51.7007 14.9756 51.7007 14.8975ZM54.9746 9.8584C55.0625 9.88281 55.1479 9.90479 55.231 9.92432C55.3188 9.93896 55.4263 9.94629 55.5532 9.94629C55.7729 9.94629 55.9951 9.92188 56.2197 9.87305C56.4443 9.81934 56.6494 9.74121 56.835 9.63867C57.0107 9.5459 57.1816 9.42383 57.3477 9.27246C57.5186 9.12109 57.6699 8.94531 57.8018 8.74512C57.9336 8.54004 58.0386 8.31299 58.1167 8.06396C58.1997 7.81006 58.2412 7.53418 58.2412 7.23633C58.2412 6.92383 58.207 6.64795 58.1387 6.40869C58.0703 6.16455 57.9678 5.94971 57.8311 5.76416C57.6992 5.57861 57.5308 5.41748 57.3257 5.28076C57.1255 5.13916 56.8911 5.01221 56.6226 4.8999C56.4761 4.83643 56.3223 4.79248 56.1611 4.76807C56.0049 4.73877 55.8413 4.72412 55.6704 4.72412C55.5142 4.72412 55.3701 4.73145 55.2383 4.74609C55.1113 4.75586 54.9771 4.7876 54.8354 4.84131V9.49951C54.8354 9.57764 54.8403 9.65088 54.8501 9.71924C54.8647 9.7876 54.9062 9.83398 54.9746 9.8584Z" fill="#9DE8FF"/>
<path d="M60.7681 14.8608C60.7681 14.7485 60.8169 14.6851 60.9146 14.6704H61.1929C61.2808 14.6704 61.3613 14.6704 61.4346 14.6704C61.5078 14.6655 61.5713 14.6558 61.625 14.6411C61.6787 14.6265 61.7202 14.6021 61.7495 14.5679C61.7837 14.5337 61.8008 14.4873 61.8008 14.4287V8.52539C61.8008 8.47168 61.7788 8.42773 61.7349 8.39355C61.6909 8.35449 61.6421 8.33496 61.5884 8.33496H61.0684H60.9292C60.9048 8.33496 60.8755 8.33252 60.8413 8.32764C60.8071 8.32275 60.7681 8.31787 60.7241 8.31299C60.6997 8.30322 60.6777 8.28369 60.6582 8.25439C60.6436 8.2251 60.6362 8.19824 60.6362 8.17383C60.6362 8.08105 60.6948 8.03467 60.812 8.03467H62.6138C62.6284 8.03467 62.665 8.03223 62.7236 8.02734C62.7871 8.02246 62.853 8.01758 62.9214 8.0127C62.9897 8.00781 63.0508 8.00293 63.1045 7.99805C63.1582 7.99316 63.1899 7.99072 63.1997 7.99072C63.2681 7.98584 63.3438 7.98096 63.4268 7.97607C63.5146 7.97119 63.5854 7.96875 63.6392 7.96875C63.6538 7.96875 63.6807 7.97119 63.7197 7.97607C63.7588 7.97607 63.8003 7.97852 63.8442 7.9834C63.8882 7.9834 63.9297 7.98584 63.9688 7.99072C64.0127 7.99072 64.042 7.99072 64.0566 7.99072C64.125 8.00537 64.1592 8.04443 64.1592 8.10791C64.1592 8.16162 64.1421 8.21533 64.1079 8.26904C64.0786 8.30322 64.0322 8.32031 63.9688 8.32031H63.1631C63.1289 8.32031 63.1021 8.33984 63.0825 8.37891C63.063 8.41309 63.0459 8.45703 63.0312 8.51074C63.0215 8.55957 63.0142 8.61084 63.0093 8.66455C63.0093 8.71826 63.0093 8.76465 63.0093 8.80371C63.0093 9.05762 63.0215 9.31152 63.0459 9.56543C63.0703 9.81445 63.0825 10.1001 63.0825 10.4224V14.4653C63.0825 14.4995 63.0898 14.541 63.1045 14.5898C63.124 14.6338 63.1558 14.6558 63.1997 14.6558H65.5435C65.6753 14.6558 65.7998 14.5972 65.917 14.48C66.0342 14.3628 66.1416 14.2261 66.2393 14.0698C66.3418 13.9136 66.4297 13.7598 66.5029 13.6084C66.5811 13.4521 66.6445 13.3374 66.6934 13.2642C66.7227 13.23 66.752 13.2129 66.7812 13.2129C66.8057 13.2129 66.8276 13.2349 66.8472 13.2788C66.8667 13.3472 66.8765 13.4082 66.8765 13.4619C66.8813 13.5107 66.8838 13.584 66.8838 13.6816C66.8838 13.7207 66.8765 13.7793 66.8618 13.8574C66.8521 13.9307 66.8374 14.0088 66.8179 14.0918C66.8032 14.1748 66.7886 14.2554 66.7739 14.3335C66.7642 14.4067 66.7593 14.4653 66.7593 14.5093C66.7593 14.5337 66.7593 14.5679 66.7593 14.6118C66.7593 14.6509 66.7568 14.6924 66.752 14.7363C66.752 14.7803 66.7495 14.8218 66.7446 14.8608C66.7397 14.895 66.7324 14.9194 66.7227 14.9341C66.6543 14.978 66.5933 15 66.5396 15C65.9292 15 65.2773 14.9951 64.584 14.9854C63.8906 14.9707 63.1997 14.9634 62.5112 14.9634C62.3892 14.9634 62.2622 14.9658 62.1304 14.9707C61.9985 14.9756 61.8716 14.9829 61.7495 14.9927C61.6274 14.9976 61.5103 15.0024 61.3979 15.0073C61.2905 15.0122 61.1978 15.0146 61.1196 15.0146C61.0171 15.0146 60.9316 15.0098 60.8633 15C60.7998 14.9854 60.7681 14.939 60.7681 14.8608Z" fill="#54D6FF"/>
<path d="M66.9644 14.7949C66.9644 14.7754 66.979 14.7461 67.0083 14.707C67.0327 14.668 67.0718 14.6484 67.1255 14.6484C67.2036 14.6484 67.2866 14.6362 67.3745 14.6118C67.4673 14.5874 67.5552 14.5508 67.6382 14.502C67.7261 14.4482 67.8066 14.3823 67.8799 14.3042C67.958 14.2212 68.0239 14.1235 68.0776 14.0112L70.0186 9.41162C70.0234 9.40186 70.0332 9.37988 70.0479 9.3457C70.0674 9.30664 70.0771 9.2749 70.0771 9.25049C70.0771 9.19678 70.0649 9.14307 70.0405 9.08936C70.0161 9.03564 69.9868 8.98682 69.9526 8.94287C69.9233 8.89404 69.8965 8.85254 69.8721 8.81836C69.8477 8.7793 69.8354 8.74512 69.8354 8.71582C69.8354 8.66699 69.8525 8.62793 69.8867 8.59863C69.9209 8.56934 69.96 8.54736 70.0039 8.53271C70.0527 8.51318 70.104 8.50098 70.1577 8.49609C70.2114 8.49121 70.2578 8.48389 70.2969 8.47412C70.3408 8.45459 70.3896 8.42285 70.4434 8.37891C70.4971 8.33008 70.541 8.29102 70.5752 8.26172C70.5898 8.2373 70.6021 8.20557 70.6118 8.1665C70.6216 8.12744 70.6313 8.09082 70.6411 8.05664C70.6558 8.02246 70.6729 7.99316 70.6924 7.96875C70.7168 7.94434 70.7485 7.93213 70.7876 7.93213C70.8853 7.93213 70.9438 7.97363 70.9634 8.05664L73.0581 14.3262C73.0874 14.4189 73.1191 14.4922 73.1533 14.5459C73.1924 14.5947 73.2388 14.6313 73.2925 14.6558C73.3462 14.6802 73.4048 14.6948 73.4683 14.6997C73.5366 14.7046 73.6147 14.707 73.7026 14.707H73.9663C74.0103 14.707 74.0444 14.7119 74.0688 14.7217C74.0933 14.7217 74.1201 14.7388 74.1494 14.7729C74.1836 14.8071 74.2007 14.8364 74.2007 14.8608C74.2007 14.939 74.1567 14.9805 74.0688 14.9854C74.0591 14.9951 74.0249 15 73.9663 15H73.5488C73.4072 15 73.2437 14.9927 73.0581 14.978C72.8726 14.9585 72.687 14.9487 72.5015 14.9487C72.1987 14.9487 71.9058 14.9585 71.6226 14.978C71.3394 14.9927 71.0879 15 70.8682 15C70.8438 15 70.8169 14.9951 70.7876 14.9854C70.7632 14.9756 70.751 14.9561 70.751 14.9268C70.751 14.8975 70.7632 14.8682 70.7876 14.8389C70.812 14.8096 70.8413 14.7827 70.8755 14.7583C70.9097 14.729 70.9463 14.707 70.9854 14.6924C71.0293 14.6777 71.0684 14.6704 71.1025 14.6704C71.1514 14.6704 71.2002 14.6729 71.249 14.6777C71.2979 14.6826 71.3516 14.6851 71.4102 14.6851C71.5664 14.6851 71.6934 14.668 71.791 14.6338C71.874 14.6045 71.9155 14.5459 71.9155 14.458C71.9155 14.4482 71.9131 14.436 71.9082 14.4214C71.9033 14.4067 71.8984 14.3848 71.8936 14.3555C71.874 14.3115 71.8423 14.231 71.7983 14.1138C71.7544 13.9917 71.708 13.8599 71.6592 13.7183C71.6104 13.5767 71.5615 13.4399 71.5127 13.3081C71.4688 13.1763 71.4346 13.0737 71.4102 13.0005C71.3906 12.9565 71.3687 12.915 71.3442 12.876C71.3247 12.832 71.2881 12.8101 71.2344 12.8101H69.1763C69.0542 12.8101 68.9761 12.8687 68.9419 12.9858L68.6489 14.0479C68.6392 14.082 68.6318 14.1113 68.627 14.1357C68.6221 14.1602 68.6196 14.1943 68.6196 14.2383C68.6196 14.3164 68.6245 14.3799 68.6343 14.4287C68.6489 14.4727 68.6685 14.5093 68.6929 14.5386C68.7222 14.5679 68.7588 14.5898 68.8027 14.6045C68.8516 14.6143 68.9126 14.624 68.9858 14.6338C69.0103 14.6338 69.0493 14.6387 69.103 14.6484C69.1616 14.6533 69.2227 14.6606 69.2861 14.6704C69.3496 14.6802 69.4082 14.6899 69.4619 14.6997C69.5205 14.7046 69.562 14.707 69.5864 14.707C69.6108 14.7168 69.645 14.7412 69.689 14.7803C69.7378 14.8145 69.7622 14.8535 69.7622 14.8975C69.7622 14.9219 69.7524 14.9463 69.7329 14.9707C69.7134 14.9902 69.6768 15 69.623 15H69.396C69.3179 15 69.2104 14.9976 69.0737 14.9927C68.9419 14.9878 68.8076 14.9854 68.6709 14.9854C68.5391 14.9854 68.3804 14.9878 68.1948 14.9927C68.0093 14.9976 67.8188 15 67.6235 15C67.5991 15 67.5503 14.9976 67.4771 14.9927C67.4038 14.9829 67.3281 14.9707 67.25 14.9561C67.1768 14.9365 67.1108 14.9146 67.0522 14.8901C66.9937 14.8608 66.9644 14.8291 66.9644 14.7949ZM69.2275 12.1582C69.2227 12.168 69.2202 12.1948 69.2202 12.2388V12.2754C69.2202 12.3291 69.2349 12.3755 69.2642 12.4146C69.2983 12.4487 69.3423 12.4658 69.396 12.4658C69.6938 12.4658 69.9746 12.478 70.2383 12.5024C70.5068 12.522 70.7656 12.5317 71.0146 12.5317C71.0684 12.5317 71.1099 12.5171 71.1392 12.4878C71.1685 12.4536 71.1831 12.4219 71.1831 12.3926V12.312C71.1831 12.3022 71.1807 12.2925 71.1758 12.2827C71.166 12.2681 71.1587 12.2437 71.1538 12.2095L70.3701 9.98291C70.3311 9.88037 70.2847 9.8291 70.231 9.8291C70.2065 9.8291 70.1797 9.83887 70.1504 9.8584C70.1211 9.87793 70.1016 9.89746 70.0918 9.91699L69.2275 12.1582Z" fill="#3FD1FF"/>
<path d="M80.0894 8.12988V9.74121C80.0894 9.7998 80.0723 9.85352 80.0381 9.90234C80.0088 9.94629 79.9673 9.96826 79.9136 9.96826C79.8403 9.96826 79.7744 9.93408 79.7158 9.86572C79.6621 9.79736 79.6133 9.71924 79.5693 9.63135C79.5254 9.53857 79.4839 9.4458 79.4448 9.35303C79.4106 9.26025 79.3765 9.18701 79.3423 9.1333C79.2886 9.06006 79.2373 8.99658 79.1885 8.94287C79.1445 8.88428 79.0957 8.83301 79.042 8.78906C78.9883 8.74023 78.9297 8.69629 78.8662 8.65723C78.8027 8.61816 78.7319 8.5791 78.6538 8.54004C78.5366 8.48145 78.4023 8.43506 78.251 8.40088C78.1045 8.3667 77.9312 8.34961 77.731 8.34961C77.5356 8.34961 77.3379 8.39844 77.1377 8.49609C76.9375 8.58887 76.7764 8.7207 76.6543 8.8916C76.5615 9.01855 76.4761 9.16504 76.3979 9.33105C76.3247 9.49707 76.2588 9.67773 76.2002 9.87305C76.1465 10.0635 76.105 10.2637 76.0757 10.4736C76.0464 10.6787 76.0317 10.8813 76.0317 11.0815C76.0317 11.1401 76.0366 11.2451 76.0464 11.3965C76.0562 11.543 76.0732 11.709 76.0977 11.8945C76.127 12.0801 76.166 12.2705 76.2148 12.4658C76.2686 12.6611 76.3394 12.8345 76.4272 12.9858C76.6128 13.3521 76.8594 13.6523 77.167 13.8867C77.4795 14.1211 77.8408 14.2432 78.251 14.2529C78.373 14.2529 78.4902 14.2383 78.6025 14.209C78.7197 14.1797 78.8271 14.1431 78.9248 14.0991C78.9443 14.0894 78.9761 14.0698 79.02 14.0405C79.064 14.0112 79.1104 13.9795 79.1592 13.9453C79.208 13.9062 79.2544 13.8672 79.2983 13.8281C79.3472 13.7891 79.3838 13.7573 79.4082 13.7329C79.4717 13.6597 79.5303 13.5791 79.584 13.4912C79.6377 13.4033 79.6816 13.3179 79.7158 13.2349C79.7549 13.147 79.7866 13.0688 79.811 13.0005C79.8354 12.9272 79.8525 12.8711 79.8623 12.832C79.877 12.7734 79.9233 12.7441 80.0015 12.7441C80.0259 12.7441 80.0454 12.7563 80.0601 12.7808C80.0747 12.8052 80.0845 12.8345 80.0894 12.8687C80.0991 12.8979 80.104 12.9272 80.104 12.9565C80.1089 12.9858 80.1113 13.0078 80.1113 13.0225C80.1113 13.3203 80.0454 13.5889 79.9136 13.8281C79.7866 14.0674 79.6133 14.2725 79.3936 14.4434C79.1836 14.6143 78.9565 14.751 78.7124 14.8535C78.4683 14.9512 78.2095 15 77.936 15C77.5991 15 77.2891 14.9609 77.0059 14.8828C76.7275 14.7998 76.4736 14.6899 76.2441 14.5532C76.0195 14.4116 75.8193 14.2456 75.6436 14.0552C75.4727 13.8599 75.3237 13.6499 75.1968 13.4253C75.0405 13.1519 74.916 12.8394 74.8232 12.4878C74.7354 12.1362 74.6914 11.7944 74.6914 11.4624C74.6914 10.9302 74.811 10.4346 75.0503 9.97559C75.2896 9.51172 75.6387 9.07471 76.0977 8.66455C76.3711 8.43506 76.647 8.25684 76.9253 8.12988C77.2085 8.00293 77.5283 7.93945 77.8848 7.93945C78.0264 7.93945 78.1582 7.94678 78.2803 7.96143C78.4072 7.97119 78.5342 7.99316 78.6611 8.02734C78.793 8.05664 78.9297 8.09814 79.0713 8.15186C79.2129 8.20557 79.3716 8.27148 79.5474 8.34961C79.5522 8.35449 79.5669 8.35693 79.5913 8.35693C79.6499 8.35693 79.6938 8.33984 79.7231 8.30566C79.7524 8.27148 79.7769 8.23242 79.7964 8.18848C79.8208 8.14453 79.8452 8.10547 79.8696 8.07129C79.894 8.03711 79.9331 8.02002 79.9868 8.02002C80.0063 8.02002 80.0283 8.03223 80.0527 8.05664C80.0771 8.08105 80.0894 8.10547 80.0894 8.12988Z" fill="#18C7FF"/>
<path d="M83.8613 11.3379L85.1138 11.2866C85.3091 11.272 85.458 11.2256 85.5605 11.1475C85.6631 11.0645 85.7388 10.9668 85.7876 10.8545C85.8413 10.7373 85.8804 10.6104 85.9048 10.4736C85.9341 10.3369 85.9756 10.2026 86.0293 10.0708C86.0439 10.0122 86.0684 9.98291 86.1025 9.98291C86.1709 9.98291 86.2051 10 86.2051 10.0342V10.3271C86.2051 10.5225 86.1953 10.7349 86.1758 10.9644C86.1611 11.189 86.1538 11.3818 86.1538 11.543C86.1538 11.6992 86.166 11.8652 86.1904 12.041C86.2197 12.2168 86.2344 12.3975 86.2344 12.583C86.2344 12.6074 86.2319 12.6465 86.2271 12.7002C86.2222 12.7539 86.2148 12.8101 86.2051 12.8687C86.1953 12.9272 86.1807 12.9785 86.1611 13.0225C86.1465 13.0664 86.1245 13.0884 86.0952 13.0884C86.0415 13.0884 86.0073 13.064 85.9927 13.0151C85.9829 12.9614 85.9731 12.9126 85.9634 12.8687C85.9536 12.8101 85.9365 12.7393 85.9121 12.6562C85.8877 12.5732 85.8608 12.4902 85.8315 12.4072C85.8022 12.3193 85.7754 12.2412 85.751 12.1729C85.7266 12.1045 85.7095 12.0581 85.6997 12.0337C85.6558 11.9458 85.5703 11.8774 85.4434 11.8286C85.3164 11.7749 85.1724 11.7358 85.0112 11.7114C84.855 11.6821 84.6914 11.665 84.5205 11.6602C84.3545 11.6504 84.208 11.6455 84.0811 11.6455H83.8613C83.7832 11.6455 83.7344 11.6626 83.7148 11.6968C83.6953 11.7261 83.6855 11.7749 83.6855 11.8433V14.4141C83.6855 14.5605 83.7319 14.6533 83.8247 14.6924H86.0513C86.1489 14.6924 86.249 14.6924 86.3516 14.6924C86.459 14.6875 86.5298 14.6753 86.564 14.6558C86.6372 14.6362 86.6982 14.5947 86.7471 14.5312C86.8008 14.4629 86.8447 14.3994 86.8789 14.3408C86.8936 14.3164 86.9204 14.2651 86.9595 14.187C87.0034 14.1089 87.0474 14.0259 87.0913 13.938C87.1401 13.8452 87.1841 13.7598 87.2231 13.6816C87.2671 13.6035 87.2988 13.5522 87.3184 13.5278C87.3477 13.4692 87.3965 13.4399 87.4648 13.4399C87.5088 13.4399 87.5405 13.457 87.5601 13.4912V14.5825C87.5601 14.6265 87.5552 14.668 87.5454 14.707C87.5405 14.7412 87.5332 14.7852 87.5234 14.8389C87.5039 14.9072 87.4795 14.9536 87.4502 14.978C87.4209 14.9976 87.3647 15.0171 87.2817 15.0366C86.7886 15.0366 86.3198 15.0342 85.8755 15.0293C85.436 15.0244 84.9893 15.0195 84.5352 15.0146C84.0811 15.0146 83.6025 15.0122 83.0996 15.0073C82.5967 15.0024 82.0352 15 81.415 15C81.332 15 81.2905 14.9585 81.2905 14.8755C81.2905 14.8218 81.3174 14.7803 81.3711 14.751C81.4248 14.7217 81.4736 14.7021 81.5176 14.6924C81.5469 14.6924 81.5933 14.6899 81.6567 14.6851C81.7251 14.6802 81.7983 14.6777 81.8765 14.6777C81.9546 14.6729 82.0303 14.668 82.1035 14.6631C82.1768 14.6582 82.2402 14.6558 82.2939 14.6558C82.4111 14.6558 82.4697 14.563 82.4697 14.3774V8.97217C82.4697 8.88916 82.46 8.78662 82.4404 8.66455C82.4258 8.54248 82.394 8.43994 82.3452 8.35693C82.311 8.33252 82.2939 8.32031 82.2939 8.32031L81.2686 8.21777C81.1758 8.21777 81.1294 8.17139 81.1294 8.07861C81.1294 8.0542 81.1343 8.0249 81.144 7.99072C81.1538 7.95166 81.1855 7.93213 81.2393 7.93213H82.4404C82.9092 7.93213 83.3706 7.92969 83.8247 7.9248C84.2788 7.91992 84.6963 7.91748 85.0771 7.91748H86.1172C86.1953 7.91748 86.2759 7.91992 86.3589 7.9248C86.4468 7.9248 86.5298 7.92725 86.6079 7.93213C86.686 7.93213 86.7568 7.93457 86.8203 7.93945C86.8838 7.93945 86.9326 7.93945 86.9668 7.93945C87.001 7.94434 87.0278 7.96143 87.0474 7.99072C87.0669 8.02002 87.0791 8.05664 87.084 8.10059C87.0938 8.13965 87.0986 8.18115 87.0986 8.2251C87.1035 8.26416 87.106 8.2959 87.106 8.32031V9.51416C87.106 9.55811 87.0889 9.58008 87.0547 9.58008C87.001 9.58008 86.9595 9.5459 86.9302 9.47754C86.9058 9.4043 86.8667 9.31885 86.813 9.22119C86.769 9.11377 86.7153 9.00635 86.6519 8.89893C86.5884 8.7915 86.542 8.7085 86.5127 8.6499C86.4688 8.56689 86.4004 8.50342 86.3076 8.45947C86.2197 8.41064 86.1196 8.37402 86.0073 8.34961C85.895 8.32031 85.7803 8.29834 85.6631 8.28369C85.5459 8.26904 85.4434 8.25195 85.3555 8.23242C85.3262 8.23242 85.2505 8.22998 85.1284 8.2251C85.0063 8.22021 84.8672 8.21777 84.7109 8.21777C84.5596 8.21289 84.4082 8.20801 84.2568 8.20312C84.1104 8.19824 83.9956 8.1958 83.9126 8.1958C83.8101 8.1958 83.7466 8.2251 83.7222 8.28369C83.6978 8.34229 83.6855 8.43018 83.6855 8.54736V11.1621C83.6855 11.2061 83.7002 11.2476 83.7295 11.2866C83.7637 11.3208 83.8076 11.3379 83.8613 11.3379Z" fill="#00C2FF"/>
<line x1="-4.37114e-08" y1="20.5" x2="97" y2="20.5" stroke="#3FD1FF"/>
<line x1="-4.37114e-08" y1="0.500015" x2="97" y2="0.500007" stroke="white"/>
</svg>
