<svg width="37" height="17" viewBox="0 0 37 17" fill="none" xmlns="http://www.w3.org/2000/svg">
<path d="M9.5791 8.8584V8.75586C9.5791 8.46777 9.60596 8.16504 9.65967 7.84766C9.71826 7.52539 9.79883 7.20557 9.90137 6.88818C10.0039 6.5708 10.1284 6.26318 10.2749 5.96533C10.4214 5.66748 10.5874 5.39404 10.7729 5.14502C10.978 4.87646 11.2075 4.63721 11.4614 4.42725C11.7202 4.2124 11.9961 4.0293 12.2891 3.87793C12.5869 3.72656 12.9019 3.61182 13.2339 3.53369C13.5659 3.45068 13.9102 3.40918 14.2666 3.40918C14.5645 3.40918 14.8721 3.43848 15.1895 3.49707C15.5068 3.55078 15.7998 3.63379 16.0684 3.74609C16.2881 3.84863 16.4858 3.97314 16.6616 4.11963C16.8423 4.26123 17.0327 4.40283 17.2329 4.54443C17.2524 4.56885 17.272 4.5835 17.2915 4.58838C17.3159 4.59326 17.3379 4.5957 17.3574 4.5957C17.4014 4.5957 17.4404 4.56396 17.4746 4.50049C17.5283 4.40771 17.5771 4.29053 17.6211 4.14893C17.665 4.00244 17.7139 3.87793 17.7676 3.77539C17.7871 3.73145 17.8091 3.70703 17.8335 3.70215C17.8579 3.69238 17.8848 3.6875 17.9141 3.6875C17.9482 3.6875 17.9727 3.69971 17.9873 3.72412C18.0068 3.74854 18.0166 3.76563 18.0166 3.77539C18.0557 3.94629 18.0776 4.11719 18.0825 4.28809C18.0923 4.45898 18.0972 4.63721 18.0972 4.82275V5.24756C18.0972 5.31104 18.0972 5.37451 18.0972 5.43799C18.0972 5.50146 18.0996 5.56738 18.1045 5.63574C18.124 5.82129 18.1484 5.98242 18.1777 6.11914C18.207 6.25586 18.2217 6.3877 18.2217 6.51465C18.2217 6.58789 18.2095 6.66602 18.1851 6.74902C18.1655 6.82715 18.1216 6.86621 18.0532 6.86621C18.0239 6.86621 17.9824 6.82959 17.9287 6.75635C17.8799 6.68311 17.8286 6.60254 17.7749 6.51465C17.7212 6.42187 17.6675 6.33154 17.6138 6.24365C17.5649 6.15576 17.5308 6.09717 17.5112 6.06787C17.3745 5.87256 17.2427 5.68701 17.1157 5.51123C16.9937 5.33545 16.8667 5.17188 16.7349 5.02051C16.6079 4.86426 16.4712 4.72266 16.3247 4.5957C16.1831 4.46387 16.0244 4.34668 15.8486 4.24414C15.6973 4.15137 15.5532 4.08057 15.4165 4.03174C15.2798 3.97803 15.1455 3.93896 15.0137 3.91455C14.8867 3.89014 14.7598 3.87549 14.6328 3.87061C14.5059 3.86572 14.3765 3.86328 14.2446 3.86328C14.0396 3.86328 13.8491 3.89258 13.6733 3.95117C13.5024 4.00488 13.3413 4.08057 13.1899 4.17822C13.0386 4.27588 12.897 4.38818 12.7651 4.51514C12.6382 4.64209 12.5137 4.77637 12.3916 4.91797C12.04 5.33301 11.7739 5.88721 11.5933 6.58057C11.4175 7.26904 11.3296 8.09424 11.3296 9.05615C11.3296 9.53467 11.3711 9.96924 11.4541 10.3599C11.542 10.7456 11.6494 11.0898 11.7764 11.3926C11.9033 11.6904 12.0425 11.9492 12.1938 12.1689C12.3501 12.3838 12.4966 12.5596 12.6333 12.6963C12.7798 12.8525 12.9189 12.9893 13.0508 13.1064C13.1875 13.2188 13.3291 13.3115 13.4756 13.3848C13.6221 13.458 13.7808 13.5142 13.9517 13.5532C14.1226 13.5874 14.3154 13.6045 14.5303 13.6045C14.8574 13.6045 15.1772 13.5337 15.4897 13.3921C15.8022 13.2505 16.1074 13.0649 16.4053 12.8354C16.4688 12.7866 16.5347 12.728 16.603 12.6597C16.6714 12.5913 16.7373 12.5229 16.8008 12.4546C16.8691 12.3862 16.9302 12.3203 16.9839 12.2568C17.0425 12.1885 17.0913 12.1274 17.1304 12.0737C17.2866 11.8296 17.4233 11.5928 17.5405 11.3633C17.6577 11.1338 17.7651 10.897 17.8628 10.6528C17.9116 10.5796 17.9971 10.543 18.1191 10.543C18.1729 10.543 18.2095 10.5625 18.229 10.6016C18.2485 10.6406 18.2583 10.687 18.2583 10.7407C18.1802 11.0093 18.1118 11.2534 18.0532 11.4731C17.9946 11.688 17.9312 11.9175 17.8628 12.1616C17.8188 12.3374 17.7871 12.5107 17.7676 12.6816C17.748 12.8477 17.7285 12.9966 17.709 13.1284C17.6895 13.2554 17.6675 13.3579 17.6431 13.436C17.6187 13.5142 17.5796 13.5532 17.5259 13.5532C17.4868 13.5532 17.4551 13.5386 17.4307 13.5093C17.4062 13.48 17.3818 13.4336 17.3574 13.3701C17.3477 13.3213 17.3306 13.2798 17.3062 13.2456C17.2866 13.2065 17.25 13.187 17.1963 13.187C17.1426 13.187 17.0913 13.1968 17.0425 13.2163C16.9985 13.2358 16.9424 13.2676 16.874 13.3115C16.8057 13.3506 16.7202 13.3994 16.6177 13.458C16.5151 13.5117 16.3784 13.5752 16.2075 13.6484C15.895 13.7754 15.5605 13.8779 15.2041 13.9561C14.8477 14.0293 14.4937 14.0659 14.1421 14.0659C13.6294 14.0659 13.1606 14 12.7358 13.8682C12.311 13.7314 11.9082 13.502 11.5273 13.1797C11.2246 12.9209 10.9536 12.6255 10.7144 12.2935C10.4751 11.9565 10.27 11.6001 10.0991 11.2241C9.93311 10.8481 9.80371 10.46 9.71094 10.0596C9.62305 9.6543 9.5791 9.25391 9.5791 8.8584Z" fill="white"/>
<path d="M19.5474 13.8975C19.5474 13.7461 19.6548 13.6704 19.8696 13.6704C20.021 13.6704 20.1772 13.6582 20.3384 13.6338C20.4995 13.6045 20.6509 13.5703 20.7925 13.5312C20.8706 13.5117 20.939 13.4824 20.9976 13.4434C21.0562 13.3994 21.0854 13.3237 21.0854 13.2163V4.21484C21.0562 4.14648 21 4.08789 20.917 4.03906C20.8389 3.99023 20.7461 3.95117 20.6387 3.92188C20.5312 3.89258 20.4165 3.86816 20.2944 3.84863C20.1772 3.8291 20.0625 3.81201 19.9502 3.79736C19.8428 3.78271 19.7427 3.76807 19.6499 3.75342C19.562 3.73389 19.4961 3.71191 19.4521 3.6875C19.418 3.67773 19.4009 3.64355 19.4009 3.58496C19.4009 3.54102 19.418 3.5166 19.4521 3.51172C19.4717 3.50195 19.501 3.49219 19.54 3.48242C19.5791 3.47266 19.6548 3.46777 19.7671 3.46777C19.8062 3.46777 19.8965 3.47266 20.0381 3.48242C20.1846 3.4873 20.3433 3.49707 20.5142 3.51172C20.6851 3.52148 20.8462 3.53125 20.9976 3.54102C21.1538 3.5459 21.2588 3.54834 21.3125 3.54834H22.3013C22.3208 3.54834 22.3672 3.5459 22.4404 3.54102C22.5186 3.53613 22.6016 3.53369 22.6895 3.53369C22.7773 3.52881 22.8555 3.52393 22.9238 3.51904C22.9971 3.51416 23.0386 3.51172 23.0483 3.51172C23.2144 3.4873 23.3804 3.47266 23.5464 3.46777C23.7124 3.46289 23.8809 3.46045 24.0518 3.46045C24.3496 3.46045 24.6548 3.47266 24.9673 3.49707C25.2847 3.5166 25.5825 3.58008 25.8608 3.6875C26.144 3.79492 26.4004 3.93896 26.6299 4.11963C26.8594 4.29541 27.0547 4.49805 27.2158 4.72754C27.3818 4.95215 27.5088 5.19873 27.5967 5.46729C27.6895 5.73584 27.7358 6.01172 27.7358 6.29492C27.7358 6.79297 27.6455 7.2251 27.4648 7.59131C27.2891 7.95264 27.0034 8.27734 26.6079 8.56543C26.3638 8.74121 26.0659 8.89014 25.7144 9.01221C25.3677 9.12939 24.9722 9.18799 24.5278 9.18799C24.3374 9.18799 24.1494 9.18555 23.9639 9.18066C23.7783 9.1709 23.5879 9.15625 23.3926 9.13672C23.3682 9.13672 23.3389 9.13184 23.3047 9.12207C23.2705 9.1123 23.2266 9.10742 23.1729 9.10742H23.0337C22.9897 9.10742 22.9653 9.11719 22.9604 9.13672C22.8823 9.16113 22.8164 9.20508 22.7627 9.26855C22.709 9.32715 22.6821 9.42969 22.6821 9.57617V10.9824C22.6821 11.3145 22.6675 11.6758 22.6382 12.0664C22.6138 12.457 22.6016 12.8306 22.6016 13.187C22.6016 13.2896 22.6235 13.3628 22.6675 13.4067C22.7114 13.4458 22.7749 13.4751 22.8579 13.4946C23.0776 13.5483 23.2852 13.5874 23.4805 13.6118C23.6758 13.6313 23.8784 13.6631 24.0884 13.707C24.1616 13.7314 24.2056 13.7583 24.2202 13.7876C24.2397 13.812 24.2495 13.8413 24.2495 13.8755C24.2495 13.9048 24.2349 13.9292 24.2056 13.9487C24.1812 13.9634 24.1494 13.978 24.1104 13.9927C24.0762 14.0024 24.0396 14.0098 24.0005 14.0146C23.9663 14.0195 23.937 14.022 23.9126 14.022C23.854 14.022 23.7808 14.0195 23.6929 14.0146C23.6099 14.0146 23.5244 14.0122 23.4365 14.0073C23.3535 14.0073 23.2729 14.0049 23.1948 14C23.1216 14 23.063 14 23.019 14H20.8071C20.6216 14 20.4434 14.0024 20.2725 14.0073C20.1064 14.0171 19.9844 14.022 19.9062 14.022H19.6353C19.5767 14.0171 19.5474 13.9756 19.5474 13.8975ZM22.8213 8.8584C22.9092 8.88281 22.9946 8.90479 23.0776 8.92432C23.1655 8.93896 23.2729 8.94629 23.3999 8.94629C23.6196 8.94629 23.8418 8.92188 24.0664 8.87305C24.291 8.81934 24.4961 8.74121 24.6816 8.63867C24.8574 8.5459 25.0283 8.42383 25.1943 8.27246C25.3652 8.12109 25.5166 7.94531 25.6484 7.74512C25.7803 7.54004 25.8853 7.31299 25.9634 7.06396C26.0464 6.81006 26.0879 6.53418 26.0879 6.23633C26.0879 5.92383 26.0537 5.64795 25.9854 5.40869C25.917 5.16455 25.8145 4.94971 25.6777 4.76416C25.5459 4.57861 25.3774 4.41748 25.1724 4.28076C24.9722 4.13916 24.7378 4.01221 24.4692 3.8999C24.3228 3.83643 24.1689 3.79248 24.0078 3.76807C23.8516 3.73877 23.688 3.72412 23.5171 3.72412C23.3608 3.72412 23.2168 3.73145 23.085 3.74609C22.958 3.75586 22.8237 3.7876 22.6821 3.84131V8.49951C22.6821 8.57764 22.687 8.65088 22.6968 8.71924C22.7114 8.7876 22.7529 8.83398 22.8213 8.8584Z" fill="#00C2FF"/>
<line x1="-4.37114e-08" y1="16.5" x2="37" y2="16.5" stroke="#00C2FF"/>
<line x1="4.37114e-08" y1="0.5" x2="37" y2="0.500003" stroke="white"/>
</svg>
